<?xml version="1.0" encoding="iso-8859-1"?>
<!-- Generator: Adobe Illustrator 19.0.0, SVG Export Plug-In . SVG Version: 6.00 Build 0)  -->
<svg version="1.1" id="Capa_1" xmlns="http://www.w3.org/2000/svg" xmlns:xlink="http://www.w3.org/1999/xlink" x="0px" y="0px"
	 viewBox="0 0 512 512" style="enable-background:new 0 0 512 512;" xml:space="preserve">
<g transform="matrix(1.25 0 0 -1.25 0 45)">
	<g>
		<g>
			<g>
				<path style="fill:#2A6797;" d="M341.333-214.311c-34.133,0-79.644-91.022-79.644-113.778c0-34.133,22.756-45.511,22.756-45.511
					H409.6v113.778C409.6-259.822,364.089-214.311,341.333-214.311"/>
				<path style="fill:#2A6797;" d="M68.267-214.311c34.133,0,79.644-91.022,79.644-113.778c0-34.133-22.756-45.511-22.756-45.511H0
					v113.778C0-259.822,45.511-214.311,68.267-214.311"/>
			</g>
			<path style="fill:#EEC2AD;" d="M284.444-89.156c0,12.572-10.183,22.756-22.756,22.756c-12.561,0-22.756-10.183-22.756-22.756
				v82.796c6.781,3.948,11.378,11.207,11.378,19.604c0,12.572-10.183,22.756-22.756,22.756C214.994,36,204.8,25.817,204.8,13.244
				C204.8,25.817,194.617,36,182.044,36c-12.561,0-22.756-10.183-22.756-22.756c0-8.397,4.608-15.656,11.378-19.604v-82.796
				c0,12.572-10.183,22.756-22.756,22.756c-12.561,0-22.756-10.183-22.756-22.756l-11.378-131.14V-271.2h56.889v-11.378h68.267
				v11.378h56.889v50.904L284.444-89.156z"/>
			<g>
				<path style="fill:#F7DECE;" d="M273.067-146.044L261.689-9.511c0,12.572-10.183,22.756-22.756,22.756
					c-12.561,0-22.756-10.183-22.756-22.756v-227.556c0-68.267,68.267-102.4,68.267-102.4s68.267,45.511,68.267,102.4
					L273.067-146.044z"/>
				<path style="fill:#F7DECE;" d="M170.667,13.244c-12.561,0-22.756-10.183-22.756-22.756l-11.378-136.533l-79.644-91.022
					c0-56.889,68.267-102.4,68.267-102.4s68.267,34.133,68.267,102.4V-9.511C193.422,3.061,183.239,13.244,170.667,13.244"/>
			</g>
		</g>
	</g>
</g>
<g>
</g>
<g>
</g>
<g>
</g>
<g>
</g>
<g>
</g>
<g>
</g>
<g>
</g>
<g>
</g>
<g>
</g>
<g>
</g>
<g>
</g>
<g>
</g>
<g>
</g>
<g>
</g>
<g>
</g>
</svg>
