<?xml version="1.0" encoding="iso-8859-1"?>
<!-- Generator: Adobe Illustrator 19.0.0, SVG Export Plug-In . SVG Version: 6.00 Build 0)  -->
<svg version="1.1" id="Capa_1" xmlns="http://www.w3.org/2000/svg" xmlns:xlink="http://www.w3.org/1999/xlink" x="0px" y="0px"
	 viewBox="0 0 512.341 512.341" style="enable-background:new 0 0 512.341 512.341;" xml:space="preserve">
<g transform="matrix(1.25 0 0 -1.25 0 45)">
	<g>
		<g>
			<path style="fill:#F3D2A2;" d="M301.943-100.533L117.418-91.75c6.337,23.45,13.733,53.328,13.733,65.172
				c0,28.444-6.565,62.578-28.558,62.578c-28.444,0-40.061,0-40.061-28.444c0-39.822-34.133-96.722-34.133-119.478
				c0-5.586,0.171-11.742,0.432-17.863l-0.91-154.226c0-63.056,11.378-89.316,79.644-89.316c68.278,0,191.329,0.023,191.329,0.023
				c24.872-0.33,45.363,14.438,48.276,34.691c0.91,6.292,33.462,180.042,33.462,180.042
				C385.842-133.256,378.731-102.923,301.943-100.533"/>
			<path style="fill:#D2A077;" d="M372.485-184.41c-2.23,3.846-6.315,5.848-10.502,5.643c-10.513,0.228-151.905,9.99-171.145,12.447
				c-1.593,0.284-15.519,3.197-14.074,19.274c0.455,5.04,1.832,11.696,5.825,14.825c3.288,2.583,7.612,2.048,7.68,2.037l0,0
				l152.508-12.368c6.451-0.649,11.753,4.164,12.254,10.422c0.501,6.269-4.164,11.753-10.433,12.254l-150.79,12.163
				c-3.311,0.466-14.598,1.399-24.735-6.201c-8.67-6.508-13.71-16.964-14.973-31.107c-1.911-21.322,9.5-33.382,20.901-39.356
				c-5.473-6.417-10.035-15.087-10.502-26.624c-1.081-26.487,16.111-40.744,20.139-43.713c-7.521-8.363-11.457-17.351-11.571-27.022
				c-0.182-15.098,8.841-26.806,16.612-34.156c-2.651-2.924-4.961-6.212-6.417-10.138c-4.813-12.891-2.116-28.888,6.531-38.901
				c5.04-5.825,11.594-8.943,18.534-8.943c1.65,0,3.334,0.171,5.018,0.546c6.144,1.32,10.047,7.361,8.727,13.505
				c-1.308,6.144-7.361,10.081-13.505,8.738c-0.159,0.023-0.558-0.114-1.547,1.024c-2.844,3.288-4.506,10.536-2.435,16.088
				c1.32,3.538,3.789,5.393,7.999,6.019c2.185,0.307,3.982,1.377,5.564,2.697l115.598-2.833h0.478
				c6.064,0,11.105,2.651,11.355,8.784c0.25,6.269-4.619,9.455-10.9,9.705l-124.439,5.063c-5.37,4.096-14.529,12.982-14.416,22.027
				c0.114,9.421,10.604,17.966,19.866,23.677l132.949-8.556c0.262-0.011,0.501-0.023,0.751-0.023c5.951,0,10.957,4.619,11.344,10.65
				c0.398,6.269-4.358,11.685-10.627,12.083l-153.896,9.899c-3.322,3.163-9.478,10.706-8.977,22.847
				c0.603,14.734,15.781,20.89,16.338,21.129c0.319,0.114,0.523,0.364,0.819,0.501c37.319-3.186,125.497-10.399,154.658-10.399
				c5.143,0,8.454,0.228,9.33,0.74C373.805-196.812,375.648-189.838,372.485-184.41"/>
		</g>
	</g>
</g>
<g>
</g>
<g>
</g>
<g>
</g>
<g>
</g>
<g>
</g>
<g>
</g>
<g>
</g>
<g>
</g>
<g>
</g>
<g>
</g>
<g>
</g>
<g>
</g>
<g>
</g>
<g>
</g>
<g>
</g>
</svg>
