<svg xmlns="http://www.w3.org/2000/svg" xmlns:xlink="http://www.w3.org/1999/xlink" xmlns:fi="http://pattern.flaticon.com/" x="0" y="0" width="700" height="350" viewBox="0 0 700 350"><rect x="0px" y="0px" width="100%" height="100%" opacity="1" fill="#f2f0ff"/><defs><g transform="matrix(0.1221836656332016 0 0 0.1221836656332016 75 116.00000028338496)" id="L1_1"><path d="M61.408,133.532c-13.232,0-24,10.768-24,24s10.768,24,24,24s24-10.768,24-24S74.64,133.532,61.408,133.532z     M61.408,165.532c-4.408,0-8-3.592-8-8s3.592-8,8-8s8,3.592,8,8S65.816,165.532,61.408,165.532z"/><path d="M491.064,203.188l-11.312-11.312l-114.48,114.48c-0.432-0.488-0.776-1.04-1.24-1.512l-67.312-67.312l10.344-10.344    l-11.312-11.312L272,239.628c-12.728,12.72-32.432,14.48-47.096,5.272l58.136-57.68c0.008-0.008,0.008-0.016,0.016-0.024l152-152    l-11.312-11.312L277.408,170.22l-10.344-10.344c-1.496-1.504-3.536-2.344-5.656-2.344H232.72l-13.656-13.656l-112-112    L95.752,43.188l74.344,74.344l-102.32,102.32l-56.96-52.216L0,179.436l93.408,85.616v20.48c0,2.12,0.84,4.16,2.344,5.656    l34.6,34.6c-3.16,4.264-4.944,9.368-4.944,14.776c0,13.472,10.736,24.408,24.088,24.88c0.464,13.056,10.944,23.536,24,24    c0.464,13.056,10.944,23.536,24,24c0.472,13.352,11.416,24.088,24.88,24.088c3.4,0,6.696-0.696,9.736-1.984l0.608,0.608    c6.04,6.048,14.08,9.376,22.632,9.376c8.552,0,16.584-3.328,22.624-9.376l86.056-86.056c6.048-6.048,9.376-14.08,9.376-22.624    c0-2.048-0.216-4.064-0.592-6.04L491.064,203.188z M79.584,230.676l101.824-101.832l20.688,20.688L101.168,250.46L79.584,230.676z     M156.72,346.908c-1.696,1.688-3.944,2.624-6.344,2.624c-4.944,0-8.968-4.024-8.968-8.968c0-2.4,0.936-4.648,2.624-6.344    l38.064-38.064c1.696-1.688,3.944-2.624,6.344-2.624c4.944,0,8.968,4.024,8.968,8.968c0,2.4-0.936,4.648-2.624,6.344    L156.72,346.908z M180.72,370.908c-1.696,1.688-3.944,2.624-6.344,2.624c-4.944,0-8.968-4.024-8.968-8.968    c0-2.4,0.936-4.648,2.624-6.344l38.064-38.064c1.696-1.688,3.944-2.624,6.344-2.624c4.944,0,8.968,4.024,8.968,8.968    c0,2.4-0.936,4.648-2.624,6.344L180.72,370.908z M204.72,394.908c-1.696,1.688-3.944,2.624-6.344,2.624    c-4.944,0-8.968-4.024-8.968-8.968c0-2.4,0.936-4.648,2.624-6.344l38.064-38.064c1.696-1.688,3.944-2.624,6.344-2.624    c4.944,0,8.968,4.024,8.968,8.968c0,2.4-0.936,4.648-2.624,6.344L204.72,394.908z M228.72,418.908    c-1.696,1.688-3.944,2.624-6.344,2.624c-4.944,0-8.968-4.024-8.968-8.968c0-2.4,0.936-4.648,2.624-6.344l38.064-38.064    c1.696-1.688,3.944-2.624,6.344-2.624c4.944,0,8.968,4.024,8.968,8.968c0,2.4-0.936,4.648-2.624,6.344L228.72,418.908z     M352.72,338.788l-86.056,86.056c-5.816,5.816-15.736,5.976-21.864,0.616l33.304-33.304c4.704-4.712,7.304-10.984,7.304-17.656    c0-13.472-10.736-24.408-24.088-24.88c-0.464-13.056-10.944-23.536-24-24c-0.464-13.056-10.944-23.536-24-24    c-0.472-13.352-11.416-24.088-24.88-24.088c-6.672,0-12.944,2.6-17.656,7.312l-29.376,29.376l-32-32v-17.376l104-104    l10.344,10.344c1.496,1.504,3.536,2.344,5.656,2.344h28.688l7.976,7.976l-58.8,58.344c-1.512,1.504-2.368,3.56-2.36,5.696    c0.008,2.136,0.864,4.184,2.384,5.68c21.032,20.72,55.144,20.592,76.016-0.296l2.096-2.088l67.312,67.312    c3.024,3.024,4.688,7.04,4.688,11.32C357.408,331.756,355.744,335.764,352.72,338.788z"/><path d="M55.784,349.044l-14.04,7.68c2.632,4.808,5.48,9.6,8.464,14.232l13.456-8.656C60.88,357.98,58.232,353.524,55.784,349.044    z"/><path d="M169.936,447.98l-5.608,14.984c5.128,1.92,10.416,3.68,15.728,5.232l4.496-15.352    C179.616,451.396,174.704,449.764,169.936,447.98z"/><path d="M115.952,418.452l-9.608,12.8c4.4,3.304,8.984,6.488,13.608,9.464l8.656-13.456    C124.304,424.484,120.04,421.524,115.952,418.452z"/><path d="M141.88,435.156l-7.68,14.032c4.816,2.632,9.8,5.136,14.816,7.432l6.664-14.544    C151.008,439.932,146.368,437.604,141.88,435.156z"/><path d="M92.648,398.244l-11.32,11.304c3.888,3.896,7.968,7.696,12.12,11.296l10.488-12.088    C100.064,405.404,96.272,401.86,92.648,398.244z"/><path d="M72.448,374.948l-12.8,9.6c3.312,4.416,6.808,8.752,10.392,12.888l12.088-10.488C78.8,383.1,75.544,379.06,72.448,374.948    z"/><path d="M29.952,260.98l-15.96,1.136c0.384,5.48,0.976,11.016,1.752,16.464l15.84-2.256    C30.864,271.244,30.312,266.084,29.952,260.98z"/><path d="M13.992,229.004c-0.392,5.44-0.584,11-0.584,16.528v0.024l16-0.024c0-5.152,0.184-10.336,0.544-15.392L13.992,229.004z"/><path d="M34.304,291.484l-15.632,3.4c1.168,5.384,2.544,10.784,4.088,16.048l15.352-4.496    C36.68,301.532,35.4,296.5,34.304,291.484z"/><path d="M42.976,321.052l-14.992,5.6c1.92,5.136,4.048,10.28,6.336,15.28l14.552-6.648    C46.744,330.62,44.76,325.836,42.976,321.052z"/><path d="M441.944,335.276c-2.144,4.672-4.472,9.312-6.928,13.8l14.04,7.68c2.632-4.816,5.136-9.8,7.432-14.816L441.944,335.276z"/><path d="M427.136,362.34c-2.784,4.32-5.752,8.576-8.816,12.664l12.8,9.608c3.296-4.384,6.48-8.968,9.472-13.608L427.136,362.34z"/><path d="M408.624,387.004c-3.352,3.872-6.888,7.672-10.512,11.288l11.304,11.32c3.896-3.888,7.696-7.968,11.296-12.12    L408.624,387.004z"/><path d="M452.72,306.396c-1.448,4.92-3.08,9.84-4.864,14.624l14.984,5.6c1.928-5.144,3.68-10.44,5.232-15.728L452.72,306.396z"/><path d="M459.24,276.284c-0.728,5.088-1.648,10.192-2.728,15.176l15.64,3.384c1.16-5.352,2.144-10.832,2.92-16.304L459.24,276.284    z"/><path d="M386.816,408.812c-3.856,3.344-7.896,6.6-12.008,9.688l9.6,12.8c4.408-3.304,8.744-6.8,12.888-10.392L386.816,408.812z"/><path d="M199.496,456.652l-3.384,15.632c5.352,1.16,10.832,2.144,16.304,2.92l2.256-15.832    C209.584,458.644,204.48,457.724,199.496,456.652z"/><path d="M461.408,245.532c0,5.144-0.176,10.336-0.536,15.416l15.96,1.128c0.384-5.464,0.576-11.032,0.576-16.544H461.408z"/><path d="M276.184,459.356c-5.072,0.72-10.232,1.272-15.344,1.632l1.136,15.96c5.48-0.384,11.016-0.976,16.464-1.752    L276.184,459.356z"/><path d="M245.408,461.532c-5.144,0-10.32-0.176-15.4-0.536l-1.128,15.96c5.456,0.384,11.024,0.576,16.536,0.576L245.408,461.532z"/><path d="M362.16,427.292c-4.288,2.76-8.744,5.408-13.248,7.872l7.68,14.04c4.832-2.648,9.616-5.488,14.224-8.456L362.16,427.292z"/><path d="M335.144,442.068c-4.664,2.128-9.448,4.12-14.224,5.896l5.592,14.992c5.136-1.92,10.28-4.048,15.28-6.336L335.144,442.068    z"/><path d="M306.296,452.836c-4.904,1.432-9.928,2.712-14.952,3.808l3.4,15.632c5.384-1.168,10.784-2.544,16.048-4.088    L306.296,452.836z"/><path d="M338.728,33.82l-7.048,14.368c4.44,2.176,9.008,4.632,13.576,7.296l8.064-13.824    C348.416,38.804,343.504,36.164,338.728,33.82z"/><path d="M245.408,13.532l-3.344,0.024l0.232,16l3.112-0.024c4.224,0,8.352,0.096,12.384,0.288l0.752-15.984    C254.264,13.636,249.896,13.532,245.408,13.532z"/><path d="M307.68,21.716l-4.488,15.36c4.84,1.416,9.704,3.072,14.456,4.928l5.832-14.896    C318.288,25.076,312.976,23.268,307.68,21.716z"/><path d="M275.032,15.172l-1.856,15.888c5.168,0.608,10.272,1.408,15.168,2.384l3.12-15.696    C286.16,16.692,280.632,15.828,275.032,15.172z"/><path d="M161.176,29.292c-5.128,2-10.24,4.208-15.2,6.568l6.856,14.456c4.624-2.192,9.392-4.256,14.168-6.12L161.176,29.292z"/><path d="M192.816,19.524c-5.368,1.248-10.752,2.696-15.992,4.32l4.728,15.288c4.872-1.512,9.88-2.864,14.88-4.024L192.816,19.524z    "/><path d="M225.528,14.372c-5.496,0.472-11.032,1.136-16.448,1.992l2.496,15.808c5.032-0.8,10.184-1.424,15.304-1.856    L225.528,14.372z"/></g><g transform="matrix(0.125 0 0 0.125 153 63.00000086975098)" id="L1_2"><path d="M352,255.999c0-17.648-14.352-32-32-32s-32,14.352-32,32v16c0,17.648,14.352,32,32,32c6.832,0,13.136-2.192,18.336-5.848    c3.84,8.152,12.072,13.848,21.664,13.848c13.232,0,24-10.768,24-24v-32c0-35.288-28.712-64-64-64c-35.288,0-64,28.712-64,64v24    c0,35.288,28.712,64,64,64h40c13.232,0,24-10.768,24-24h-16c0,4.408-3.584,8-8,8h-40c-26.472,0-48-21.528-48-48v-24    c0-26.472,21.528-48,48-48s48,21.528,48,48v32c0,4.408-3.584,8-8,8c-4.416,0-8-3.592-8-8v-16V255.999z M336,271.999    c0,8.824-7.176,16-16,16c-8.824,0-16-7.176-16-16v-16c0-8.824,7.176-16,16-16c8.824,0,16,7.176,16,16V271.999z"/><path d="M246.552,444.287c-5.024,0.976-10.136,1.776-15.2,2.368l1.84,15.888c5.48-0.64,11-1.496,16.424-2.552L246.552,444.287z"/><path d="M215.992,447.847c-5.112,0.192-10.304,0.2-15.384,0.016l-0.592,15.992c2.648,0.096,5.304,0.144,7.984,0.144    c2.888,0,5.768-0.056,8.632-0.168L215.992,447.847z"/><path d="M140.464,436.279l-5.4,15.064c5.184,1.864,10.512,3.552,15.832,5l4.216-15.432    C150.2,439.567,145.272,438.007,140.464,436.279z"/><path d="M170.096,444.407l-3.024,15.712c5.4,1.04,10.92,1.88,16.416,2.504l1.8-15.896    C180.208,446.151,175.096,445.375,170.096,444.407z"/><path d="M112.432,423.711l-7.648,14.04c4.864,2.656,9.872,5.144,14.872,7.392l6.56-14.592    C121.584,428.471,116.952,426.167,112.432,423.711z"/><path d="M63.752,386.455l-11.544,11.088c3.856,4.008,7.872,7.888,11.952,11.528l10.656-11.936    C71.04,393.767,67.32,390.175,63.752,386.455z"/><path d="M86.68,406.951l-9.736,12.704c4.368,3.336,8.928,6.568,13.568,9.584l8.72-13.416    C94.936,413.031,90.72,410.047,86.68,406.951z"/><path d="M276.176,436.063c-4.8,1.744-9.728,3.32-14.656,4.688l4.28,15.416c5.312-1.472,10.64-3.176,15.832-5.064L276.176,436.063z    "/><path d="M329.872,406.527c-4.008,3.096-8.216,6.088-12.52,8.912l8.768,13.384c4.648-3.04,9.2-6.288,13.536-9.632L329.872,406.527z    "/><path d="M352.256,386.447c-3.4,3.536-6.952,6.968-10.56,10.216l10.704,11.888c3.896-3.504,7.728-7.208,11.384-11.008    L352.256,386.447z"/><path d="M304.16,423.359c-4.448,2.456-9.072,4.776-13.752,6.896l6.624,14.568c5.04-2.296,10.04-4.8,14.848-7.448L304.16,423.359z"/><path d="M182.808,17.455c-5.48,0.64-11,1.496-16.424,2.552l3.064,15.704c5.024-0.976,10.136-1.776,15.2-2.368L182.808,17.455z"/><path d="M199.368,16.167l0.64,15.984c5.104-0.2,10.296-0.208,15.384-0.016l0.592-15.992    C210.48,15.943,204.896,15.959,199.368,16.167z"/><path d="M150.2,23.831c-5.312,1.472-10.64,3.176-15.832,5.064l5.456,15.04c4.8-1.744,9.728-3.32,14.656-4.688L150.2,23.831z"/><path d="M118.968,35.175c-5.04,2.296-10.04,4.8-14.848,7.448l7.72,14.016c4.448-2.456,9.072-4.776,13.752-6.896L118.968,35.175z"/><path d="M265.104,23.655l-4.224,15.424c4.912,1.344,9.84,2.904,14.648,4.632l5.408-15.056    C275.752,26.791,270.424,25.103,265.104,23.655z"/><path d="M232.512,17.375l-1.792,15.904c5.08,0.576,10.192,1.352,15.192,2.32l3.016-15.72    C243.528,18.839,238.008,17.999,232.512,17.375z"/><path d="M89.88,51.175c-4.648,3.04-9.2,6.288-13.536,9.632l9.784,12.664c4.008-3.096,8.216-6.088,12.52-8.912L89.88,51.175z"/><path d="M325.488,50.759l-8.72,13.416c4.296,2.792,8.512,5.776,12.552,8.872l9.736-12.704    C334.688,57.007,330.128,53.775,325.488,50.759z"/><path d="M351.84,70.927l-10.656,11.936c3.776,3.368,7.496,6.96,11.064,10.68l11.544-11.088    C359.936,78.447,355.92,74.567,351.84,70.927z"/><path d="M63.6,71.439c-3.896,3.504-7.728,7.208-11.384,11.008l11.528,11.096c3.4-3.528,6.952-6.96,10.56-10.208L63.6,71.439z"/><path d="M296.344,34.855l-6.56,14.592c4.632,2.08,9.264,4.384,13.784,6.84l7.648-14.04    C306.352,39.591,301.344,37.103,296.344,34.855z"/><path d="M480,119.999v-16h-72h-8H8c-4.424,0-8,3.584-8,8v224c0,22.056,17.944,40,40,40h336c22.056,0,40-17.944,40-40v-152h16v-16    h-16v-16h40v-16h-40v-16H480z M375.28,119.999L208,206.983L40.72,119.999H375.28z M400,335.999c0,13.232-10.768,24-24,24H40    c-13.232,0-24-10.768-24-24V125.175l188.312,97.92c1.16,0.6,2.424,0.904,3.688,0.904c1.264,0,2.528-0.304,3.688-0.904L400,125.175    V335.999z"/><rect x="32px" y="327px" width="16px" height="16px"/><rect x="64px" y="327px" width="16px" height="16px"/><rect x="96px" y="327px" width="16px" height="16px"/></g><g transform="matrix(0.125 0 0 0.125 255 141)" id="L1_3"><path d="M421.648,74.336L349.664,2.352C348.216,0.896,346.216,0,344,0H96C73.944,0,56,17.944,56,40v400c0,22.056,17.944,40,40,40    h288c22.056,0,40-17.944,40-40V80C424,77.784,423.104,75.784,421.648,74.336z M352,27.312L396.688,72H352V27.312z M408,440    c0,13.232-10.768,24-24,24H96c-13.232,0-24-10.768-24-24V40c0-13.232,10.768-24,24-24h240v64c0,4.424,3.584,8,8,8h64V440z"/><path d="M128,112c-17.648,0-32,14.352-32,32s14.352,32,32,32s32-14.352,32-32S145.648,112,128,112z M128,160    c-8.824,0-16-7.176-16-16c0-8.824,7.176-16,16-16c8.824,0,16,7.176,16,16C144,152.824,136.824,160,128,160z"/><path d="M128,200c-17.648,0-32,14.352-32,32s14.352,32,32,32s32-14.352,32-32S145.648,200,128,200z M128,248    c-8.824,0-16-7.176-16-16c0-8.824,7.176-16,16-16c8.824,0,16,7.176,16,16C144,240.824,136.824,248,128,248z"/><path d="M128,288c-17.648,0-32,14.352-32,32s14.352,32,32,32s32-14.352,32-32S145.648,288,128,288z M128,336    c-8.824,0-16-7.176-16-16c0-8.824,7.176-16,16-16c8.824,0,16,7.176,16,16C144,328.824,136.824,336,128,336z"/><path d="M128,376c-17.648,0-32,14.352-32,32s14.352,32,32,32s32-14.352,32-32S145.648,376,128,376z M128,424    c-8.824,0-16-7.176-16-16c0-8.824,7.176-16,16-16c8.824,0,16,7.176,16,16C144,416.824,136.824,424,128,424z"/><rect x="176px" y="152px" width="208px" height="16px"/><rect x="184px" y="40px" width="112px" height="16px"/><rect x="160px" y="72px" width="160px" height="16px"/><rect x="176px" y="240px" width="208px" height="16px"/><rect x="176px" y="328px" width="208px" height="16px"/><rect x="176px" y="416px" width="208px" height="16px"/><rect x="240px" y="120px" width="16px" height="16px"/><rect x="208px" y="120px" width="16px" height="16px"/><rect x="176px" y="120px" width="16px" height="16px"/></g><g transform="matrix(0.125 0 0 0.125 173 143)" id="L1_4"><path d="M376,136C376,61.008,314.992,0,240,0S104,61.008,104,136c0,39.56,17.496,77.12,47.272,102.84    C146.8,243.208,144,249.272,144,256c0,6.168,2.408,11.744,6.24,16c-3.84,4.256-6.24,9.832-6.24,16c0,6.168,2.408,11.744,6.24,16    c-3.84,4.256-6.24,9.832-6.24,16c0,10.416,6.712,19.216,16,22.528V400c0,2.152,0.88,4.16,2.36,5.64l-0.016,0.016l72,72    c1.56,1.56,3.608,2.344,5.656,2.344c2.048,0,4.096-0.784,5.656-2.344l72-72l-0.016-0.016c1.48-1.48,2.36-3.488,2.36-5.64v-57.472    c9.288-3.312,16-12.112,16-22.528c0-6.168-2.408-11.744-6.24-16c3.84-4.256,6.24-9.832,6.24-16c0-6.168-2.408-11.744-6.24-16    c3.84-4.256,6.24-9.832,6.24-16c0-6.728-2.8-12.792-7.272-17.16C358.504,213.12,376,175.56,376,136z M240,460.688L227.312,448    h25.376L240,460.688z M268.688,432h-57.376l-30.752-30.76l11.44-7.624l19.56,13.04c2.688,1.792,6.184,1.792,8.872,0L240,393.616    l19.56,13.04c2.688,1.792,6.184,1.792,8.872,0L288,393.616l11.44,7.632L268.688,432z M304,385.048l-11.56-7.704    c-2.688-1.792-6.184-1.792-8.872,0L264,390.384l-19.56-13.04c-2.688-1.792-6.184-1.792-8.872,0L216,390.384l-19.56-13.04    c-2.688-1.792-6.184-1.792-8.872,0L176,385.048V344h128V385.048z M312,328H168c-4.408,0-8-3.592-8-8c0-4.408,3.592-8,8-8h144    c4.408,0,8,3.592,8,8C320,324.408,316.408,328,312,328z M312,296H168c-4.408,0-8-3.592-8-8c0-4.408,3.592-8,8-8h144    c4.408,0,8,3.592,8,8C320,292.408,316.408,296,312,296z M312,264H168c-4.408,0-8-3.592-8-8c0-4.408,3.592-8,8-8h143.968    l0.096,0.016C316.44,248.048,320,251.608,320,256C320,260.408,316.408,264,312,264z M214.976,143.016    c1.464,1.184,3.248,1.776,5.024,1.776s3.56-0.592,5.024-1.776C234.544,135.336,240,124.024,240,112    c0-1.848-0.176-3.672-0.424-5.48c-0.072-0.52-0.168-1.024-0.264-1.544c-0.248-1.376-0.568-2.736-0.968-4.072    c-0.128-0.448-0.24-0.896-0.384-1.336c-0.568-1.704-1.232-3.368-2.024-4.976c-0.144-0.288-0.32-0.56-0.472-0.856    c-0.696-1.336-1.48-2.632-2.328-3.88c-0.144-0.216-0.248-0.456-0.4-0.672c4.68-1.552,9.864-1.552,14.544,0    c-0.152,0.216-0.256,0.456-0.4,0.672c-0.848,1.256-1.624,2.544-2.328,3.88c-0.152,0.288-0.328,0.56-0.472,0.856    c-0.792,1.608-1.464,3.28-2.024,4.976c-0.144,0.44-0.256,0.888-0.384,1.336c-0.392,1.336-0.712,2.696-0.968,4.072    c-0.096,0.512-0.192,1.024-0.264,1.544c-0.264,1.808-0.44,3.632-0.44,5.48c0,12.024,5.456,23.336,14.976,31.016    c1.464,1.184,3.248,1.776,5.024,1.776s3.56-0.592,5.024-1.776C274.544,135.336,280,124.024,280,112    c0-1.848-0.176-3.672-0.424-5.48c-0.072-0.52-0.168-1.024-0.264-1.544c-0.248-1.376-0.568-2.736-0.968-4.072    c-0.128-0.448-0.24-0.896-0.392-1.336c-0.568-1.704-1.232-3.368-2.024-4.976c-0.144-0.304-0.328-0.584-0.488-0.88    c-0.688-1.32-1.456-2.592-2.288-3.832c-0.152-0.232-0.264-0.48-0.424-0.704C275.072,88.4,277.504,88,280,88    c12.784,0,24,12.024,24,25.744c0,11.76-5.184,22.832-14.224,30.36l-30.896,25.752c-1.824,1.52-2.88,3.768-2.88,6.144v56h-32v-56    c0-2.376-1.056-4.624-2.88-6.144l-30.896-25.752c-9.04-7.536-14.224-18.6-14.224-30.36C176,100.024,187.216,88,200,88    c2.488,0,4.928,0.4,7.264,1.176c-0.16,0.224-0.272,0.48-0.424,0.704c-0.84,1.24-1.6,2.512-2.288,3.832    c-0.152,0.296-0.336,0.576-0.488,0.88c-0.792,1.608-1.456,3.272-2.024,4.976c-0.144,0.44-0.256,0.896-0.392,1.336    c-0.392,1.336-0.712,2.696-0.968,4.072c-0.096,0.512-0.192,1.024-0.264,1.544c-0.24,1.808-0.416,3.632-0.416,5.48    C200,124.024,205.456,135.336,214.976,143.016z M216,112c0-1.592,0.224-3.152,0.536-4.688c0.08-0.368,0.16-0.744,0.256-1.104    c0.384-1.496,0.872-2.968,1.544-4.368c0.056-0.104,0.12-0.208,0.176-0.312c0.416-0.824,0.976-1.576,1.488-2.352    c0.512,0.776,1.072,1.528,1.488,2.352c0.048,0.104,0.12,0.2,0.176,0.304c0.672,1.392,1.16,2.864,1.544,4.368    c0.096,0.368,0.176,0.736,0.256,1.104c0.312,1.544,0.536,3.104,0.536,4.696s-0.224,3.152-0.536,4.688    c-0.08,0.368-0.16,0.744-0.256,1.104c-0.384,1.496-0.872,2.968-1.544,4.368c-0.048,0.104-0.12,0.208-0.176,0.312    c-0.416,0.824-0.976,1.576-1.488,2.352c-0.512-0.776-1.072-1.528-1.488-2.352c-0.056-0.104-0.128-0.208-0.176-0.312    c-0.672-1.4-1.16-2.872-1.544-4.368c-0.096-0.368-0.176-0.736-0.256-1.104C216.224,115.152,216,113.592,216,112z M256,112    c0-1.592,0.224-3.152,0.536-4.688c0.08-0.368,0.16-0.744,0.256-1.104c0.384-1.496,0.872-2.968,1.544-4.368    c0.056-0.104,0.12-0.208,0.176-0.312c0.416-0.824,0.976-1.576,1.488-2.352c0.512,0.776,1.072,1.528,1.488,2.352    c0.048,0.104,0.12,0.2,0.176,0.304c0.672,1.392,1.16,2.864,1.544,4.368c0.096,0.368,0.176,0.736,0.256,1.104    c0.312,1.544,0.536,3.104,0.536,4.696s-0.224,3.152-0.536,4.688c-0.08,0.368-0.16,0.744-0.256,1.104    c-0.384,1.496-0.872,2.968-1.544,4.368c-0.048,0.104-0.12,0.208-0.176,0.312c-0.416,0.824-0.976,1.576-1.488,2.352    c-0.512-0.776-1.072-1.528-1.488-2.352c-0.056-0.104-0.128-0.208-0.176-0.312c-0.672-1.4-1.16-2.872-1.544-4.368    c-0.096-0.368-0.176-0.736-0.256-1.104C256.224,115.152,256,113.592,256,112z M311.824,232H272v-52.256l28.016-23.352    C312.72,145.816,320,130.264,320,113.744C320,91.12,301.68,72,280,72c-7.104,0-13.912,1.952-20.024,5.576    c-12.312-7.136-27.624-7.136-39.944,0C213.912,73.952,207.104,72,200,72c-21.68,0-40,19.12-40,41.744    c0,16.52,7.28,32.072,19.984,42.656L208,179.744V232h-39.824C137.96,209.344,120,173.68,120,136c0-66.168,53.832-120,120-120    s120,53.832,120,120C360,173.68,342.04,209.344,311.824,232z"/><rect x="361px" y="16px" width="45px" height="16px" transform="matrix(0.7071 -0.7071 0.7071 0.7071 95.4905 278.5592)"/><rect x="375px" y="225px" width="16px" height="45px" transform="matrix(0.7071 -0.7071 0.7071 0.7071 -62.8857 344.1524)"/><rect x="400px" y="128px" width="48px" height="16px"/><rect x="88px" y="1px" width="16px" height="45px" transform="matrix(0.7071 -0.7071 0.7071 0.7071 11.1452 74.9142)"/><rect x="73px" y="239px" width="45px" height="16px" transform="matrix(0.7071 -0.7071 0.7071 0.7071 -147.2421 140.5192)"/><rect x="32px" y="128px" width="48px" height="16px"/><rect x="336px" y="384px" width="16px" height="16px"/><rect x="368px" y="384px" width="16px" height="16px"/><rect x="400px" y="384px" width="16px" height="16px"/><rect x="64px" y="384px" width="16px" height="16px"/><rect x="96px" y="384px" width="16px" height="16px"/><rect x="128px" y="384px" width="16px" height="16px"/></g><g transform="matrix(0.12362977117300034 0 0 0.12362977117300034 35.99999984908476 288)" id="L1_5"><path d="M117.973,200l-29.656-29.656C86.821,168.84,84.781,168,82.661,168h-72c-3.232,0-6.152,1.944-7.392,4.936    c-1.24,2.992-0.552,6.432,1.736,8.72L31.349,208L5.005,234.344c-2.288,2.288-2.976,5.728-1.736,8.72    c1.24,2.992,4.16,4.936,7.392,4.936h72c2.12,0,4.16-0.84,5.656-2.344L117.973,216h156.688v-16H117.973z M79.349,232H29.973    l18.344-18.344c3.128-3.128,3.128-8.184,0-11.312L29.973,184h49.376l24,24L79.349,232z"/><path d="M274.661,48c-79.032,0-145.408,56.664-157.832,134.744l15.808,2.512C143.813,114.992,203.541,64,274.661,64    c79.4,0,144,64.6,144,144s-64.6,144-144,144c-71.12,0-130.848-50.992-142.024-121.256l-15.808,2.512    C129.253,311.336,195.629,368,274.661,368c88.224,0,160-71.776,160-160S362.885,48,274.661,48z"/><path d="M274.661,80c-60.632,0-113.384,43.072-125.432,102.408l15.68,3.184C175.453,133.68,221.605,96,274.661,96    c61.76,0,112,50.24,112,112s-50.24,112-112,112c-53.056,0-99.208-37.68-109.752-89.592l-15.68,3.184    C161.277,292.928,214.029,336,274.661,336c70.576,0,128-57.424,128-128S345.237,80,274.661,80z"/><path d="M274.661,136c-29.456,0-55.648,17.664-66.72,44.992l14.832,6.016C231.389,165.744,251.757,152,274.661,152    c30.88,0,56,25.128,56,56s-25.12,56-56,56c-22.904,0-43.272-13.744-51.888-35.008l-14.832,6.016    C219.013,262.336,245.205,280,274.661,280c39.696,0,72-32.296,72-72C346.661,168.296,314.357,136,274.661,136z"/><path d="M274.661,168c-9.56,0-18.872,3.544-26.232,9.976l10.528,12.048c3.144-2.752,8.424-6.024,15.704-6.024    c13.232,0,24,10.768,24,24s-10.768,24-24,24c-7.28,0-12.56-3.272-15.696-6.024l-10.528,12.048    c7.352,6.432,16.664,9.976,26.224,9.976c22.056,0,40-17.944,40-40C314.661,185.944,296.717,168,274.661,168z"/><path d="M482.661,208c0-114.696-93.312-208-208-208c-91.888,0-174,61.584-199.672,149.768l15.36,4.472    C114.045,72.84,189.837,16,274.661,16c105.864,0,192,86.136,192,192s-86.136,192-192,192c-84.824,0-160.616-56.84-184.32-138.232    l-15.36,4.472c15.136,51.976,49.968,94.584,94.76,120.912l-28.888,63.544c-3.016,6.632-2.928,14.192,0.232,20.76    c3.16,6.568,9.032,11.344,16.112,13.12c2.016,0.496,4.032,0.744,6.016,0.744c9.096,0,17.56-5.072,21.8-13.544l32.08-64.152    c18.456,5.352,37.752,8.376,57.568,8.376c20.416,0,40.136-3.008,58.8-8.52l32.136,64.272c4.24,8.48,12.704,13.544,21.8,13.544    c1.992,0,4.008-0.24,6.024-0.752c7.072-1.768,12.944-6.544,16.104-13.112c3.168-6.552,3.248-14.128,0.232-20.76l-29.024-63.864    C441.701,350.52,482.661,283.968,482.661,208z M170.717,464.6c-1.792,3.576-5.792,5.376-9.624,4.44    c-2.488-0.624-4.472-2.232-5.584-4.544c-1.112-2.304-1.144-4.848-0.08-7.176l28.44-62.576c5.84,2.856,11.808,5.432,17.912,7.744    L170.717,464.6z M395.197,457.312c1.056,2.328,1.024,4.88-0.08,7.176c-1.112,2.312-3.096,3.92-5.568,4.536    c-3.888,1.016-7.84-0.848-9.64-4.432l-31.144-62.296c6.104-2.336,12.072-4.936,17.88-7.816L395.197,457.312z"/><rect x="298px" y="432px" width="16px" height="16px"/><rect x="266px" y="432px" width="16px" height="16px"/><rect x="234px" y="432px" width="16px" height="16px"/></g><g transform="matrix(0.125 0 0 0.125 282 335)" id="L1_6"><path d="M56,416c-30.872,0-56,25.128-56,56c0,4.424,3.576,8,8,8h96c4.424,0,8-3.576,8-8C112,441.128,86.872,416,56,416z     M16.808,464C19.992,448.36,32.36,436.072,48,432.88V448h16v-15.12c15.64,3.2,28.008,15.48,31.192,31.12H16.808z"/><path d="M472,344h-14.032c-0.44-1.112-0.896-2.216-1.392-3.328l9.928-9.928c3.128-3.128,3.128-8.184,0-11.312l-33.936-33.936    c-1.656-1.656-3.84-2.376-6.008-2.272C439.24,276.496,448,263.32,448,248V40c0-22.056-17.944-40-40-40H40C17.944,0,0,17.944,0,40    v208c0,22.056,17.944,40,40,40h104.4l-30.224,56H112h-12c-15.44,0-28,12.56-28,28s12.56,28,28,28h172c0,4.424,3.576,8,8,8h14.032    c0.44,1.112,0.896,2.216,1.392,3.328l-9.928,9.928c-3.128,3.128-3.128,8.184,0,11.312l33.936,33.936    c3.128,3.128,8.184,3.128,11.312,0l9.928-9.928c1.112,0.496,2.216,0.952,3.328,1.392V472c0,4.424,3.576,8,8,8h48    c4.424,0,8-3.576,8-8v-14.032c1.112-0.44,2.216-0.896,3.328-1.392l9.928,9.928c3.128,3.128,8.184,3.128,11.312,0l33.936-33.936    c3.128-3.128,3.128-8.184,0-11.312l-9.928-9.928c0.496-1.112,0.952-2.216,1.392-3.328H472c4.424,0,8-3.576,8-8v-48    C480,347.576,476.424,344,472,344z M16,40c0-13.232,10.768-24,24-24h368c13.232,0,24,10.768,24,24v168H16V40z M40,272    c-13.232,0-24-10.768-24-24v-24h416v24c0,13.232-10.768,24-24,24h-8h-48h-61.808H157.808H40z M421.152,285.6l-9.824,9.824    c-1.112-0.496-2.216-0.952-3.328-1.392V288C412.632,288,417.008,287.056,421.152,285.6z M344,288v6.032    c-1.112,0.44-2.216,0.896-3.328,1.392L333.248,288H344z M316.92,288l-6.896,6.896L305.328,288H316.92z M272,384H100    c-6.616,0-12-5.384-12-12c0-6.616,5.384-12,12-12h12h6.944H272V384z M132.356,343.992L162.576,288h123.392l12.544,18.408    l-13.016,13.016c-3.128,3.128-3.128,8.184,0,11.312l9.928,9.928c-0.496,1.112-0.952,2.216-1.392,3.328H280H132.356z M464,392    h-11.672c-3.496,0-6.576,2.264-7.632,5.592c-1.216,3.864-2.856,7.8-4.88,11.672c-1.616,3.104-1.032,6.888,1.44,9.36l8.288,8.288    l-22.624,22.624l-8.288-8.288c-2.48-2.472-6.256-3.048-9.36-1.44c-3.872,2.024-7.808,3.664-11.672,4.88    c-3.336,1.064-5.6,4.144-5.6,7.64V464h-32v-11.672c0-3.496-2.264-6.576-5.592-7.632c-3.864-1.216-7.8-2.856-11.672-4.88    c-3.104-1.608-6.888-1.032-9.36,1.44l-8.288,8.288l-22.624-22.624l8.288-8.288c2.472-2.472,3.056-6.256,1.44-9.36    c-2.024-3.872-3.664-7.808-4.88-11.672c-1.064-3.336-4.144-5.6-7.64-5.6H288v-32h11.672c3.496,0,6.576-2.264,7.632-5.592    c1.216-3.864,2.856-7.8,4.88-11.672c1.616-3.104,1.032-6.888-1.44-9.36l-8.288-8.288l22.624-22.624l8.288,8.288    c2.472,2.48,6.256,3.056,9.36,1.44c3.872-2.024,7.808-3.664,11.672-4.88c3.336-1.064,5.6-4.144,5.6-7.64V288h32v11.672    c0,3.496,2.264,6.576,5.592,7.632c3.864,1.216,7.8,2.856,11.672,4.88c3.104,1.616,6.88,1.04,9.36-1.44l8.288-8.288l22.624,22.624    l-8.288,8.288c-2.472,2.472-3.056,6.256-1.44,9.36c2.024,3.872,3.664,7.808,4.88,11.672c1.064,3.336,4.144,5.6,7.64,5.6H464V392z"/><path d="M376,328c-26.472,0-48,21.528-48,48s21.528,48,48,48s48-21.528,48-48S402.472,328,376,328z M376,408    c-17.648,0-32-14.352-32-32s14.352-32,32-32s32,14.352,32,32S393.648,408,376,408z"/><path d="M157.656,61.656l-11.312-11.312l-56,56c-3.128,3.128-3.128,8.184,0,11.312l56,56l11.312-11.312L107.312,112    L157.656,61.656z"/><path d="M333.656,106.344l-56-56l-11.312,11.312L316.688,112l-50.344,50.344l11.312,11.312l56-56    C336.784,114.528,336.784,109.472,333.656,106.344z"/><rect x="131px" y="96px" width="160px" height="16px" transform="matrix(0.4472 -0.8944 0.8944 0.4472 24.1457 247.1068)"/><rect x="312px" y="160px" width="16px" height="16px"/><rect x="344px" y="160px" width="16px" height="16px"/><rect x="376px" y="160px" width="16px" height="16px"/></g><g transform="matrix(0.125 0 0 0.125 72 47)" id="L1_7"><path d="M456,232V56c0-22.056-17.944-40-40-40H64c-22.056,0-40,17.944-40,40v120c-13.232,0-24,10.768-24,24v240    c0,13.232,10.768,24,24,24h176c13.232,0,24-10.768,24-24h67.048c7.544,0,14.496-3.44,19.072-9.432s6.064-13.608,4.08-20.88    L298.472,352H344v88c0,13.232,10.768,24,24,24h88c13.232,0,24-10.768,24-24V256C480,242.768,469.232,232,456,232z M208,440    c0,4.408-3.592,8-8,8H24c-4.408,0-8-3.592-8-8v-16h192V440z M208,408H16V232h192V408z M208,216H16v-16c0-4.408,3.592-8,8-8h176    c4.408,0,8,3.592,8,8V216z M298.768,413.896c0.664,2.424,0.168,4.96-1.36,6.96s-3.84,3.144-6.36,3.144H224v-16h73.16    L298.768,413.896z M224,392v-40h57.888l10.912,40H224z M344,336H224v-48h120V336z M344,256v16H224v-72c0-13.232-10.768-24-24-24    H40V56c0-13.232,10.768-24,24-24h352c13.232,0,24,10.768,24,24v176h-72C354.768,232,344,242.768,344,256z M464,440    c0,4.408-3.592,8-8,8h-88c-4.408,0-8-3.592-8-8v-16h104V440z M464,408H360V288h104V408z M464,272H360v-16c0-4.408,3.592-8,8-8h88    c4.408,0,8,3.592,8,8V272z"/><rect x="41px" y="327px" width="45px" height="16px" transform="matrix(0.7071 -0.7071 0.7071 0.7071 -218.8385 143.6649)"/><rect x="60px" y="319px" width="135px" height="16px" transform="matrix(0.7071 -0.7071 0.7071 0.7071 -194.4378 186.5751)"/><rect x="86px" y="272px" width="67px" height="16px" transform="matrix(0.7071 -0.7071 0.7071 0.7071 -162.8477 166.8601)"/><rect x="375px" y="324px" width="56px" height="16px" transform="matrix(0.7071 -0.7071 0.7071 0.7071 -116.4408 382.9028)"/><rect x="391px" y="356px" width="56px" height="16px" transform="matrix(0.7071 -0.7071 0.7071 0.7071 -134.4066 403.5971)"/><rect x="206px" y="128px" width="67px" height="16px" transform="matrix(0.7071 -0.7071 0.7071 0.7071 -25.876 209.5337)"/><rect x="278px" y="112px" width="67px" height="16px" transform="matrix(0.7071 -0.7071 0.7071 0.7071 6.5281 255.7627)"/><rect x="233px" y="168px" width="45px" height="16px" transform="matrix(0.7071 -0.7071 0.7071 0.7071 -49.4797 232.5655)"/><rect x="273px" y="72px" width="45px" height="16px" transform="matrix(0.7071 -0.7071 0.7071 0.7071 30.0796 232.7427)"/><rect x="56px" y="48px" width="16px" height="16px"/><rect x="88px" y="48px" width="16px" height="16px"/><rect x="120px" y="48px" width="16px" height="16px"/></g><path d="M372.189,256.191l-51.928-66.104c18.439-18.904,29.574-43.737,31.424-70.08h80.408v8.8    c-18.613,3.825-31.979,20.198-32,39.2c0.005,22.091,17.917,39.996,40.008,39.992s39.996-17.917,39.992-40.008    c-0.004-19.005-13.379-35.383-32-39.184v-16.8c0-4.418-3.582-8-8-8h-88.408c-1.564-22.165-9.728-43.355-23.44-60.84l11.16-11.16    h94.16c4.418,12.497,18.131,19.046,30.627,14.627c12.497-4.418,19.046-18.131,14.627-30.627S460.689-3.039,448.193,1.379    c-6.835,2.416-12.211,7.793-14.627,14.627h-97.472c-2.122,0-4.156,0.844-5.656,2.344l-12.92,12.92    c-44.458-42.816-115.208-41.485-158.025,2.973c-18.198,18.896-29.169,43.592-30.991,69.763h-67.2L35.149,45.183    C46.84,39.03,51.33,24.566,45.178,12.875S24.561-3.305,12.87,2.847C1.18,8.999-3.31,23.463,2.842,35.154    c3.233,6.144,8.977,10.581,15.739,12.156l30.2,67.952c1.286,2.887,4.152,4.746,7.312,4.744h72.408    c1.842,26.04,12.762,50.608,30.856,69.424l-67.536,67.536c-43.669-6.543-84.374,23.553-90.917,67.222    c-6.543,43.669,23.553,84.374,67.222,90.917c1.318,0.198,2.641,0.362,3.967,0.493v40.408c0,4.418,3.582,8,8,8h73.472    c4.418,12.497,18.131,19.046,30.627,14.627s19.046-18.131,14.627-30.627s-18.131-19.046-30.627-14.627    c-6.835,2.416-12.211,7.793-14.627,14.627H88.093v-32.408c43.938-4.38,76.007-43.55,71.627-87.489    c-2.964-29.732-22.26-55.331-50.027-66.367l61.6-61.6c40.116,31.586,96.582,31.813,136.952,0.552l44.384,56.496    c-61.285,8.549-104.036,65.16-95.487,126.444c8.549,61.285,65.16,104.036,126.444,95.487    c61.285-8.549,104.036-65.16,95.487-126.444C471.565,298.847,426.504,258.17,372.189,256.191z M464.093,168.007    c0,13.255-10.745,24-24,24s-24-10.745-24-24s10.745-24,24-24S464.093,154.752,464.093,168.007z M456.093,16.007    c4.418,0,8,3.582,8,8s-3.582,8-8,8s-8-3.582-8-8S451.675,16.007,456.093,16.007z M24.093,32.007c-4.418,0-8-3.582-8-8s3.582-8,8-8    s8,3.582,8,8S28.511,32.007,24.093,32.007z M176.093,448.007c4.418,0,8,3.582,8,8s-3.582,8-8,8s-8-3.582-8-8    S171.675,448.007,176.093,448.007z M112.093,391.351c-19.771,11.546-44.229,11.546-64,0v-15.344c0-17.673,14.327-32,32-32    s32,14.327,32,32V391.351z M64.093,312.007c0-8.837,7.163-16,16-16s16,7.163,16,16s-7.163,16-16,16S64.093,320.843,64.093,312.007    z M128.093,293.535c10.342,11.727,16.034,26.835,16,42.472c-0.003,15.546-5.694,30.553-16,42.192v-2.192    c-0.01-17.49-9.533-33.591-24.856-42.024c12.203-12.784,11.731-33.04-1.053-45.243c-12.784-12.202-33.04-11.731-45.243,1.053    c-11.803,12.365-11.803,31.824,0,44.189c-15.32,8.435-24.839,24.535-24.848,42.024v2.192    c-23.379-26.51-20.841-66.953,5.668-90.332C64.271,264.487,104.714,267.025,128.093,293.535z M296.093,189.799    c-33.397,24.246-78.603,24.246-112,0v-19.392c0-14.58,11.82-26.4,26.4-26.4h17.76l-11.608,29.024    c-1.189,2.973-0.49,6.37,1.776,8.632l16,16c3.124,3.123,8.188,3.123,11.312,0l16-16c2.266-2.263,2.965-5.659,1.776-8.632    l-11.6-29.024h17.784c14.58,0,26.4,11.82,26.4,26.4V189.799z M241.238,59.887c-0.3,0.5-0.544,1.03-0.728,1.583    c-4.048,12.136-25.903,16.736-39.975,18.072c2.146-26.81,14.762-39.536,39.559-39.536c22.704,0,35.2,10.736,38.776,33.136    l-26.656-16C248.424,54.87,243.51,56.099,241.238,59.887z M251.125,75.159l28.592,17.16    c-3.208,19.584-27.344,35.688-39.624,35.688c-17.843-3.039-32.686-15.412-38.888-32.416    C214.901,94.463,239.629,90.311,251.125,75.159z M246.701,174.079l-6.608,6.616l-6.608-6.616l6.608-16.536L246.701,174.079z     M274.997,128.375c12.48-9.821,20.159-24.515,21.096-40.368c0-52.896-30.456-64-56-64s-56,11.104-56,64    c0.93,15.862,8.61,30.566,21.096,40.392c-21.206,2.613-37.127,20.641-37.096,42.008v4.864    c-35.069-39.764-31.263-100.429,8.502-135.498C216.36,4.704,277.024,8.51,312.093,48.274c32,36.285,32,90.711,0,126.996v-4.864    C312.136,149.031,296.212,130.988,274.997,128.375z M424.093,445.799c-33.397,24.246-78.603,24.246-112,0v-19.392    c0-14.58,11.82-26.4,26.4-26.4h17.76l-11.608,29.024c-1.189,2.973-0.49,6.369,1.776,8.632l16,16c3.124,3.123,8.188,3.123,11.312,0    l16-16c2.266-2.263,2.965-5.659,1.776-8.632l-11.6-29.024h17.784c14.58,0,26.4,11.82,26.4,26.4V445.799z M379.125,331.159l0-0.008    l28.592,17.16c-3.208,19.592-27.344,35.696-39.624,35.696c-17.843-3.039-32.686-15.412-38.888-32.416    C342.901,350.463,367.629,346.31,379.125,331.159z M328.533,335.543L328.533,335.543c2.144-26.808,14.76-39.536,39.56-39.536    c22.704,0,35.2,10.736,38.776,33.136l-26.656-16c-3.789-2.273-8.703-1.044-10.976,2.745c-0.3,0.5-0.544,1.03-0.728,1.583    C364.461,329.607,342.605,334.207,328.533,335.543z M374.701,430.079l-6.608,6.616l-6.608-6.616l6.608-16.536L374.701,430.079z     M440.093,431.294v-4.888c0.043-21.376-15.881-39.418-37.096-42.032c12.48-9.821,20.159-24.515,21.096-40.368    c0-52.896-30.456-64-56-64s-56,11.104-56,64c0.93,15.862,8.61,30.566,21.096,40.392c-21.206,2.613-37.127,20.641-37.096,42.008    v4.864c-34.987-39.795-31.089-100.419,8.706-135.406c39.795-34.987,100.419-31.089,135.406,8.706    c15.416,17.534,23.909,40.088,23.888,63.435C464.088,391.325,455.552,413.836,440.093,431.294z" transform="matrix(0.12494533509016037 0 0 0.12494533509016037 115 -27)" id="L1_8"/><g transform="matrix(0.125 0 0 0.125 188 -11)" id="L1_9"><path d="M8,0C3.582,0,0,3.582,0,8v88h16V16h80V0H8z"/><path d="M472,0h-88v16h80v80h16V8C480,3.582,476.418,0,472,0z"/><path d="M16,464v-80H0v88c0,4.418,3.582,8,8,8h88v-16H16z"/><path d="M464,384v80h-80v16h88c4.418,0,8-3.582,8-8v-88H464z"/><path d="M463.8,232C459.476,114.655,365.345,20.524,248,16.2V0h-16v16.2C114.655,20.524,20.524,114.655,16.2,232H0v16h16.2    c4.324,117.345,98.455,211.476,215.8,215.8V480h16v-16.2c117.345-4.324,211.476-98.455,215.8-215.8H480v-16H463.8z M70.264,360    c-5.256-7.414-10.02-15.164-14.264-23.2v-30.4c0-14.58,11.82-26.4,26.4-26.4h17.784l-11.608,29.024    c-1.189,2.973-0.49,6.369,1.776,8.632l16,16c3.124,3.123,8.188,3.123,11.312,0l16-16c2.266-2.263,2.965-5.659,1.776-8.632    L123.816,280H141.6c14.58,0,26.4,11.82,26.4,26.4V360H70.264z M123.032,211.152l28.592,17.16C148.416,247.896,124.28,264,112,264    c-17.843-3.039-32.686-15.412-38.888-32.416C86.808,230.456,111.536,226.304,123.032,211.152z M72.441,215.536    C74.587,188.726,87.203,176,112,176c22.704,0,35.2,10.736,38.776,33.136l-26.656-16c-3.789-2.273-8.703-1.044-10.976,2.745    c-0.3,0.5-0.544,1.03-0.728,1.583C108.368,209.6,86.513,214.2,72.441,215.536z M118.608,310.072L112,316.688l-6.608-6.616    L112,293.536L118.608,310.072z M248,447.8V432h-16v15.8c-57.532-2.207-111.561-28.212-149.176-71.8H176c4.418,0,8-3.582,8-8v-40    h112v40c0,4.418,3.582,8,8,8h93.176C359.561,419.588,305.532,445.593,248,447.8z M251.032,163.152l28.592,17.16    C276.416,199.896,252.28,216,240,216c-17.843-3.039-32.686-15.412-38.888-32.416C214.808,182.456,239.536,178.304,251.032,163.152    z M200.441,167.536C202.587,140.726,215.203,128,240,128c22.704,0,35.2,10.736,38.776,33.136l-26.656-16    c-3.789-2.273-8.703-1.044-10.976,2.745c-0.3,0.5-0.544,1.03-0.728,1.583C236.368,161.6,214.513,166.2,200.441,167.536z     M246.608,262.072L240,268.688l-6.608-6.616L240,245.536L246.608,262.072z M228.184,232l-11.608,29.024    c-1.189,2.973-0.49,6.369,1.776,8.632l16,16c3.124,3.123,8.188,3.123,11.312,0l16-16c2.266-2.263,2.965-5.659,1.776-8.632    L251.816,232H269.6c14.58,0,26.4,11.82,26.4,26.4V312H184v-53.6c0-14.58,11.82-26.4,26.4-26.4H228.184z M424,336.8    c-4.244,8.036-9.008,15.786-14.264,23.2H312v-53.6c0-14.58,11.82-26.4,26.4-26.4h17.784l-11.608,29.024    c-1.189,2.973-0.49,6.369,1.776,8.632l16,16c3.124,3.123,8.188,3.123,11.312,0l16-16c2.266-2.263,2.965-5.659,1.776-8.632    L379.816,280H397.6c14.58,0,26.4,11.82,26.4,26.4V336.8z M379.032,211.152l28.592,17.16C404.416,247.896,380.28,264,368,264    c-17.843-3.039-32.686-15.412-38.888-32.416C342.808,230.456,367.536,226.304,379.032,211.152z M328.441,215.536    C330.587,188.726,343.203,176,368,176c22.704,0,35.2,10.736,38.776,33.136l-26.656-16c-3.789-2.273-8.703-1.044-10.976,2.745    c-0.3,0.5-0.544,1.03-0.728,1.583C364.368,209.6,342.513,214.2,328.441,215.536z M374.608,310.072L368,316.688l-6.608-6.616    L368,293.536L374.608,310.072z M447.8,248c-0.651,17.397-3.495,34.643-8.464,51.328c-3.041-18.442-17.879-32.67-36.432-34.936    C415.39,254.566,423.07,239.862,424,224c0-52.896-30.456-64-56-64s-56,11.104-56,64c0.93,15.862,8.61,30.566,21.096,40.392    c-6.51,0.802-12.744,3.108-18.208,6.736c-1.016,0.68-1.944,1.44-2.888,2.2V258.4c0.043-21.376-15.881-39.418-37.096-42.032    c12.48-9.821,20.159-24.515,21.096-40.368c0-52.896-30.456-64-56-64s-56,11.104-56,64c0.93,15.862,8.61,30.566,21.096,40.392    C183.89,219.005,167.969,237.033,168,258.4v14.896c-0.944-0.752-1.872-1.52-2.888-2.2c-5.464-3.628-11.698-5.935-18.208-6.736    c12.478-9.819,20.157-24.509,21.096-40.36c0-52.896-30.456-64-56-64s-56,11.104-56,64c0.93,15.862,8.61,30.566,21.096,40.392    c-18.553,2.266-33.391,16.494-36.432,34.936C35.695,282.643,32.851,265.397,32.2,248H48v-16H32.2    C36.5,123.485,123.485,36.5,232,32.2V48h16V32.2c108.515,4.3,195.5,91.285,199.8,199.8H432v16H447.8z"/></g><g transform="matrix(0.1249963566660881 0 0 0.1249963566660881 245 61)" id="L1_10"><path d="M480.014,96.006c-0.067-20.263-15.305-37.262-35.44-39.536C409.589,0.568,335.91-16.388,280.007,18.597    c-21.845,13.672-38.681,34.044-47.993,58.073C213.259,28.512,165.846-2.292,114.222,0.142C49.364,4.012-0.962,58.24,0.014,123.206    c0.147,55.913,26.297,108.576,70.752,142.488l18.12,13.744c-25.178,41.217-39.167,88.29-40.584,136.568h-8.288    c-4.418,0-8,3.582-8,8v48c0,4.418,3.582,8,8,8h296c4.418,0,8-3.582,8-8v-48c-0.015-3.133-1.856-5.969-4.712-7.256l4.632-4.392    C430.625,329.938,479.798,215.623,480.014,96.006z M80.43,252.91c-40.465-30.872-64.271-78.807-64.416-129.704    c-0.963-56.417,42.643-103.6,98.96-107.08c57.37-2.784,106.134,41.468,108.918,98.838c0.081,1.679,0.122,3.361,0.122,5.042    c0,4.418,3.582,8,8,8s8-3.582,8-8c-0.522-56.94,45.215-103.522,102.155-104.044c33.355-0.305,64.796,15.544,84.389,42.54    c-15.872,5.652-26.491,20.656-26.544,37.504c0.201,63.198-28.998,122.896-79.008,161.536l-20.712,16.112l24.72-35.696    c14.124-20.449,8.996-48.477-11.454-62.6c-17.859-12.334-41.977-10.164-57.346,5.16L154.926,281.782    c-5.202,5.219-10.119,10.715-14.728,16.464L80.43,252.91z M96.014,464.006h-48v-32h48V464.006z M64.302,416.006    c1.389-44.801,14.265-88.493,37.392-126.888l28.968,21.976c-21.134,31.029-33.077,67.395-34.456,104.912H64.302z M328.014,464.006    h-216v-32h216V464.006z M332.934,400.742l-16.12,15.264H112.406c1.804-46.294,21.035-90.197,53.84-122.912L267.51,191.83    c11.38-11.27,29.741-11.182,41.012,0.198c9.781,9.876,11.179,25.304,3.332,36.778l-54.4,78.608    c-2.526,3.625-1.634,8.611,1.991,11.137c2.883,2.008,6.739,1.901,9.505-0.265l61.904-48.152    c53.902-41.656,85.373-106.006,85.16-174.128c0-13.255,10.745-24,24-24s24,10.745,24,24    C463.81,211.231,416.443,321.35,332.934,400.742z"/><path d="M40.014,112.006h16c0.04-35.33,28.67-63.96,64-64v-16C75.851,32.055,40.062,67.844,40.014,112.006z"/><rect x="40px" y="128px" width="16px" height="16px"/></g><g transform="matrix(0.125 0 0 0.125 108 185)" id="L1_11"><path d="M336,40c-22.091,0-40,17.909-40,40c0.026,22.08,17.92,39.974,40,40c22.091,0,40-17.909,40-40S358.091,40,336,40z M336,104    c-13.255,0-24-10.745-24-24s10.745-24,24-24s24,10.745,24,24S349.255,104,336,104z"/><path d="M408,56h-12.672l-0.4-0.984l8.96-8.96c3.123-3.124,3.123-8.188,0-11.312L381.256,12.12c-3.174-3.001-8.138-3.001-11.312,0    l-8.96,8.96L360,20.672V8c0-4.418-3.582-8-8-8h-32c-4.418,0-8,3.582-8,8v12.672l-0.984,0.408l-8.96-8.96    c-3.124-3.123-8.188-3.123-11.312,0L268.12,34.744c-3.123,3.124-3.123,8.188,0,11.312l8.96,8.96L276.672,56H264    c-4.418,0-8,3.582-8,8v32c0,4.418,3.582,8,8,8h12.672l0.4,0.984l-8.96,8.952c-3.123,3.124-3.123,8.188,0,11.312l22.632,22.632    c3.174,3.001,8.138,3.001,11.312,0l8.96-8.96l0.984,0.408V152c0,4.418,3.582,8,8,8h32c4.418,0,8-3.582,8-8v-12.672l0.984-0.408    l8.96,8.96c3.124,3.123,8.188,3.123,11.312,0l22.632-22.632c3.123-3.124,3.123-8.188,0-11.312l-8.96-8.952l0.4-0.984H408    c4.418,0,8-3.582,8-8V64C416,59.582,412.418,56,408,56z M400,88.008h-10.352c-3.539,0.002-6.656,2.328-7.664,5.72    c-0.93,3.16-2.188,6.214-3.752,9.112c-1.689,3.114-1.129,6.968,1.376,9.472l7.304,7.296L375.6,130.912l-7.304-7.304    c-2.504-2.505-6.358-3.065-9.472-1.376c-2.901,1.559-5.954,2.816-9.112,3.752c-3.389,1.011-5.711,4.128-5.712,7.664V144h-16    v-10.352c-0.001-3.536-2.323-6.653-5.712-7.664c-3.158-0.936-6.211-2.193-9.112-3.752c-3.114-1.689-6.968-1.129-9.472,1.376    l-7.304,7.304l-11.312-11.32l7.304-7.296c2.505-2.505,3.065-6.358,1.376-9.472c-1.565-2.898-2.822-5.952-3.752-9.112    c-1.011-3.389-4.128-5.711-7.664-5.712H272V72h10.352c3.539-0.002,6.656-2.328,7.664-5.72c0.93-3.16,2.188-6.214,3.752-9.112    c1.689-3.114,1.129-6.967-1.376-9.472l-7.304-7.304L296.4,29.088l7.304,7.304c2.505,2.505,6.358,3.065,9.472,1.376    c2.901-1.559,5.954-2.817,9.112-3.752c3.389-1.011,5.711-4.128,5.712-7.664V16h16v10.352c0.001,3.536,2.323,6.653,5.712,7.664    c3.158,0.935,6.211,2.193,9.112,3.752c3.114,1.689,6.968,1.129,9.472-1.376l7.304-7.304L386.912,40.4l-7.304,7.304    c-2.505,2.505-3.065,6.358-1.376,9.472c1.565,2.898,2.822,5.952,3.752,9.112c1.008,3.392,4.125,5.718,7.664,5.72H400V88.008z"/><path d="M479.96,471.2l-16-152c-0.328-3.119-2.449-5.759-5.424-6.752L392,290.24v-29.672c0.696-0.544,1.416-1.032,2.104-1.6    C423.173,234.303,439.952,198.123,440,160c0-4.418-3.582-8-8-8h-24v16h15.712c-2.157,30.517-16.522,58.877-39.848,78.672    c-27.722,23.11-67.998,23.11-95.72,0C265.15,226.63,250.889,198.401,248.4,168H264v-16h-24c-2.143,0.005-4.196,0.869-5.696,2.4    c-1.502,1.522-2.331,3.582-2.304,5.72c0.343,38.027,17.07,74.059,45.896,98.864c0.68,0.568,1.408,1.056,2.104,1.6v29.656    l-66.528,22.176c-2.975,0.993-5.096,3.633-5.424,6.752l-16,152c-0.46,4.394,2.73,8.329,7.125,8.789    c0.275,0.029,0.551,0.043,0.827,0.043h272c4.418,0,8-3.582,8-8C480,471.733,479.987,471.466,479.96,471.2z M280,464h-71.112    l14.528-138.04L280,307.104V464z M296,324.944l19.144,9.6L296,340.896V324.944z M296,464V357.768l28.352-9.448l-20.072,73.6    c-0.518,1.898-0.319,3.92,0.56,5.68l18.216,36.4H296z M320.52,423.16L336,366.4l15.472,56.8L336,454.112L320.52,423.16z M376,464    h-27.056l18.208-36.424c0.879-1.76,1.078-3.782,0.56-5.68l-20.072-73.6l28.36,9.472V464z M376,340.896l-19.144-6.4L376,324.944    V340.896z M376,307.056l-40,20l-40-20V270.64c25.206,12.481,54.794,12.481,80,0V307.056z M392,464V307.104l56.584,18.856    L463.112,464H392z"/><path d="M80,168c-22.091,0-40,17.909-40,40c0.026,22.08,17.92,39.974,40,40c22.091,0,40-17.909,40-40S102.091,168,80,168z M80,232    c-13.255,0-24-10.745-24-24s10.745-24,24-24s24,10.745,24,24S93.255,232,80,232z"/><path d="M152,184h-12.672l-0.4-0.984l8.96-8.96c3.123-3.124,3.123-8.188,0-11.312l-22.632-22.624    c-3.174-3.001-8.138-3.001-11.312,0l-8.96,8.96L104,148.672V136c0-4.418-3.582-8-8-8H64c-4.418,0-8,3.582-8,8v12.672l-0.984,0.408    l-8.96-8.96c-3.124-3.123-8.188-3.123-11.312,0L12.12,162.744c-3.123,3.124-3.123,8.188,0,11.312l8.96,8.96L20.672,184H8    c-4.418,0-8,3.582-8,8v32c0,4.418,3.582,8,8,8h12.672l0.4,0.984l-8.96,8.952c-3.123,3.124-3.123,8.188,0,11.312l22.632,22.632    c3.174,3.001,8.138,3.001,11.312,0l8.96-8.96L56,267.328V280c0,4.418,3.582,8,8,8h32c4.418,0,8-3.582,8-8v-12.672l0.984-0.408    l8.96,8.96c3.124,3.123,8.188,3.123,11.312,0l22.632-22.632c3.123-3.124,3.123-8.188,0-11.312l-8.96-8.952l0.4-0.984H152    c4.418,0,8-3.582,8-8v-32C160,187.582,156.418,184,152,184z M144,216.008h-10.352c-3.539,0.002-6.656,2.328-7.664,5.72    c-0.93,3.16-2.188,6.214-3.752,9.112c-1.689,3.114-1.129,6.968,1.376,9.472l7.304,7.296L119.6,258.912l-7.304-7.304    c-2.505-2.505-6.358-3.065-9.472-1.376c-2.901,1.559-5.954,2.816-9.112,3.752c-3.389,1.011-5.711,4.128-5.712,7.664V272H72    v-10.352c-0.001-3.536-2.323-6.653-5.712-7.664c-3.158-0.936-6.211-2.193-9.112-3.752c-3.114-1.689-6.968-1.129-9.472,1.376    l-7.304,7.304l-11.312-11.32l7.304-7.296c2.505-2.505,3.065-6.358,1.376-9.472c-1.565-2.898-2.822-5.952-3.752-9.112    c-1.011-3.389-4.128-5.711-7.664-5.712H16v-16h10.352c3.539-0.002,6.656-2.328,7.664-5.72c0.93-3.16,2.188-6.214,3.752-9.112    c1.689-3.114,1.129-6.967-1.376-9.472l-7.304-7.304L40.4,157.088l7.304,7.304c2.505,2.505,6.358,3.065,9.472,1.376    c2.901-1.559,5.954-2.817,9.112-3.752c3.389-1.011,5.711-4.128,5.712-7.664V144h16v10.352c0.001,3.536,2.323,6.653,5.712,7.664    c3.158,0.935,6.211,2.193,9.112,3.752c3.114,1.689,6.968,1.129,9.472-1.376l7.304-7.304l11.32,11.312l-7.304,7.304    c-2.505,2.504-3.065,6.358-1.376,9.472c1.564,2.898,2.822,5.952,3.752,9.112c1.008,3.392,4.125,5.718,7.664,5.72H144V216.008z"/><path d="M259.496,251.2C239.612,264.786,216.082,272.037,192,272c-10.135,0.003-20.231-1.271-30.048-3.792l-4,15.504    c11.125,2.851,22.564,4.292,34.048,4.288c27.293,0.051,53.962-8.157,76.504-23.544L259.496,251.2z"/><path d="M65.81,101.216c-1.101,2.729-2.113,5.493-3.034,8.288l15.2,5c20.779-63.007,88.7-97.24,151.707-76.461    c2.459,0.811,4.891,1.701,7.293,2.669l6.008-14.832C173.255-2.242,93.932,31.487,65.81,101.216z"/><path d="M92.536,297.232L83.44,310.4c4.12,2.84,8.448,5.6,12.848,8.104l8-13.856C100.288,302.32,96.288,299.848,92.536,297.232z"/><path d="M176.704,327.344l-1.376,15.936c5.528,0.48,11.144,0.72,16.672,0.72v-16C186.92,328,181.776,327.784,176.704,327.344z"/><path d="M146.6,322.088l-4.128,15.456c5.344,1.432,10.832,2.64,16.312,3.592l2.752-15.768    C156.52,324.496,151.496,323.392,146.6,322.088z"/><path d="M117.864,311.688l-6.76,14.48c5,2.336,10.192,4.48,15.432,6.4L132,317.52C127.2,315.784,122.448,313.816,117.864,311.688z    "/><path d="M130.544,82.584c-4.295,3.874-8.266,8.094-11.872,12.616l12.528,9.952c3.047-3.826,6.405-7.393,10.04-10.664    L130.544,82.584z"/><path d="M210.568,56.528l-1.6,15.92c4.412,0.446,8.785,1.224,13.08,2.328l4-15.496C220.964,57.979,215.789,57.059,210.568,56.528z    "/><path d="M193.28,56.208c-5.77,0.365-11.499,1.21-17.128,2.528l3.656,15.576c4.761-1.116,9.608-1.833,14.488-2.144L193.28,56.208z"/><path d="M159.688,64.104c-5.33,2.244-10.463,4.931-15.344,8.032l8.568,13.512c4.126-2.621,8.464-4.893,12.968-6.792    L159.688,64.104z"/><path d="M109.032,109.544c-2.803,5.059-5.182,10.341-7.112,15.792l15.088,5.328c1.631-4.61,3.644-9.076,6.016-13.352    L109.032,109.544z"/></g><g transform="matrix(0.12500077486038208 0 0 0.12500077486038208 157 252)" id="L1_12"><path d="M477.656,2.341c-1.839-1.837-4.455-2.666-7.016-2.224l-103.496,17.84c-37.404,6.534-73.023,20.836-104.56,41.984    l-58.904-3.944c-2.295-0.118-4.536,0.726-6.184,2.328L95.664,160.165c-3.125,3.124-3.125,8.189-0.001,11.314    c1.371,1.372,3.194,2.198,5.129,2.326l61.96,4.136l-24.408,24.408c-2.392,2.416-2.975,6.09-1.448,9.128    C102.13,229.26,80.184,264.947,80,303.997v88c0,4.418,3.582,8,8,8h88c39.05-0.181,74.74-22.124,92.528-56.888    c3.028,1.599,6.748,1.006,9.128-1.456l19.672-19.672l4.344,65.224c0.312,4.407,4.138,7.727,8.545,7.414    c1.904-0.135,3.696-0.946,5.055-2.286l101.864-101.832c1.631-1.63,2.479-3.883,2.328-6.184l-4-60.184    c23.664-33.136,39.586-71.161,46.592-111.272L479.88,9.357C480.323,6.796,479.493,4.179,477.656,2.341z M119.44,158.989    l86.8-86.768l36.272,2.4c-28.946,23.29-52.806,52.272-70.104,85.152l-1.392,2.656L119.44,158.989z M176,383.997H96v-80    c0.147-34.739,20.621-66.174,52.336-80.352l13.84,13.84c-16.022,8.125-26.134,24.548-26.176,42.512v56c0,4.418,3.582,8,8,8h56    c17.964-0.042,34.387-10.154,42.512-26.176l13.84,13.84C242.175,363.376,210.74,383.85,176,383.997z M174.264,249.597    l56.136,56.136c-4.211,13.244-16.503,22.246-30.4,22.264h-48v-48C152.014,266.098,161.017,253.804,174.264,249.597z M272,324.685    l-0.568-0.568l-26.512-26.52l-62.52-62.52l-26.504-26.504l-0.584-0.576L176,187.309l116.688,116.688L272,324.685z     M316.464,368.549l-3.8-57.016l7.536-3.944c30.707-16.171,58.025-38.085,80.472-64.552l2.584,38.72L316.464,368.549z     M446.272,110.141c-13.759,78.444-63.036,146.11-133.472,183.28l-5.28,2.768L183.816,172.501l2.768-5.28    C223.754,96.783,291.414,47.5,369.856,33.725l92.336-15.912L446.272,110.141z"/><path d="M315.312,463.997c3.923-14.441,1.268-29.877-7.256-42.176c-15.94-23.018-47.521-28.757-70.54-12.818    c-7,4.847-12.666,11.379-16.476,18.994c-10.875,21.958-33.217,35.893-57.72,36l34.336-34.344l-11.312-11.312l-48,48    c-3.124,3.125-3.123,8.19,0.002,11.314c1.5,1.499,3.534,2.342,5.654,2.342h18.832c30.736,0.107,58.86-17.266,72.52-44.8    c8.574-17.137,29.417-24.078,46.554-15.503c15.872,7.941,23.191,26.58,16.966,43.199l-2.4,6.312    c-1.542,4.14,0.564,8.747,4.705,10.289c0.903,0.336,1.859,0.507,2.823,0.503h48v-16H315.312z"/><rect x="368px" y="463px" width="16px" height="16px"/><rect x="400px" y="463px" width="16px" height="16px"/><rect x="52px" y="435px" width="79px" height="16px" transform="matrix(0.7071 -0.7071 0.7071 0.7071 -287.0092 195.0952)"/><path d="M58.344,378.341L16,420.685v-16c-0.071-26.506,10.463-51.939,29.256-70.632C57.3,322.078,64.05,305.781,64,288.797v-0.8    c-0.04-35.33-28.67-63.96-64-64v16c26.497,0.031,47.969,21.503,48,48v0.8c0.036,12.735-5.026,24.956-14.056,33.936    C12.139,344.421-0.083,373.931,0,404.685v35.312c-0.001,3.235,1.947,6.153,4.936,7.392c2.99,1.239,6.432,0.553,8.72-1.736l56-56    L58.344,378.341z"/><rect x="4px" y="455px" width="22px" height="16px" transform="matrix(0.7071 -0.7071 0.7071 0.7071 -323.4214 147.1879)"/><path d="M352,79.997c-26.51,0-48,21.49-48,48c0.001,1.486,0.081,2.971,0.24,4.448l-13.896,13.896l-8,8    c-11.96,11.96-11.96,31.352,0,43.312c11.96,11.96,31.352,11.96,43.312,0l8-8l13.896-13.896c1.477,0.159,2.962,0.239,4.448,0.24    c26.51,0,48-21.49,48-48S378.51,79.997,352,79.997z M314.344,186.341c-5.836,5.59-15.098,5.391-20.688-0.445    c-5.421-5.659-5.421-14.584,0-20.243l2.344-2.344l20.688,20.688L314.344,186.341z M352,159.997    c-1.951-0.018-3.895-0.219-5.808-0.6c-2.59-0.479-5.249,0.346-7.112,2.208L328,172.685l-4.688-4.688l17.008-17.008l22.208-7.4    l-5.064-15.2l-8.8,2.936l2.944-8.8l-15.2-5.064l-7.4,22.208L312,156.685l-4.688-4.688l11.088-11.08    c1.864-1.864,2.69-4.528,2.208-7.12c-0.382-1.91-0.586-3.852-0.608-5.8c0-17.673,14.327-32,32-32c17.673,0,32,14.327,32,32    S369.674,159.997,352,159.997z"/><rect x="396px" y="63px" width="22px" height="16px" transform="matrix(0.7071 -0.7071 0.7071 0.7071 68.5952 309.5867)"/><rect x="408px" y="119px" width="24px" height="16px"/><rect x="344px" y="47px" width="16px" height="24px"/></g><g transform="matrix(0.12499947845935822 0 0 0.12499947845935822 211 205.00000064086643)" id="L1_13"><path d="M306.81,260.606l-64-24c-1.81-0.679-3.806-0.679-5.616,0l-64,24c-3.125,1.171-5.194,4.159-5.192,7.496    c0.078,32.716,15.473,63.508,41.6,83.2l25.6,19.2c2.844,2.133,6.756,2.133,9.6,0l25.6-19.2c26.127-19.692,41.522-50.484,41.6-83.2    C312.004,264.765,309.935,261.777,306.81,260.606z M260.802,338.502l-20.8,15.6l-20.8-15.6    c-20.569-15.51-33.357-39.213-35.024-64.92l55.824-20.936l55.832,20.936C294.165,299.29,281.374,322.994,260.802,338.502z"/><path d="M423.938,183.59c0.444-13.193-1.658-26.347-6.192-38.744c-19.294-53.917-78.644-81.984-132.561-62.689    c-3.373,1.207-6.681,2.588-9.911,4.137c-13.927-42.45-55.254-69.719-99.76-65.824c-35.511,3.685-66.184,26.448-80,59.368    c-7.277,16.792-9.318,35.389-5.856,53.36c-51.663,7.193-90.006,51.544-89.656,103.704c0.965,39.907,33.819,71.632,73.736,71.2h72    c11.04,31.209,31.026,58.477,57.464,78.4l32,24c2.844,2.133,6.756,2.133,9.6,0l32-24c26.441-19.922,46.43-47.19,57.472-78.4    h81.728c35.33-0.04,63.96-28.67,64-64C480.002,204.55,451.354,190.558,423.938,183.59z M267.202,373.702l-27.2,20.4l-27.2-20.4    c-36.697-27.668-58.991-70.385-60.704-116.312l87.904-36.624l87.904,36.624C326.193,303.317,303.899,346.033,267.202,373.702z     M416.002,292.102h-76.92c3.252-13.085,4.904-26.517,4.92-40c0-3.229-1.94-6.141-4.92-7.384l-96-40    c-1.971-0.822-4.189-0.822-6.16,0l-96,40c-2.98,1.243-4.92,4.155-4.92,7.384c0.016,13.483,1.668,26.915,4.92,40h-67.2    c-31.361,0.37-57.142-24.642-57.72-56c-0.049-47.026,36.971-85.735,83.952-87.784c4.414-0.201,7.828-3.943,7.627-8.356    c-0.029-0.63-0.132-1.254-0.307-1.86c-5.254-17.133-4.195-35.581,2.984-52c11.47-27.491,37.019-46.54,66.64-49.688    c40.416-3.538,77.104,23.679,85.44,63.384c0.896,4.327,5.129,7.108,9.456,6.212c0.9-0.186,1.76-0.526,2.544-1.004    c17.896-11.002,39.16-15.18,59.888-11.768c31.4,5.397,57.521,27.162,68.496,57.072c4.524,12.371,6.179,25.608,4.84,38.712    c-0.407,4.039,2.275,7.743,6.24,8.616c36.12,7.944,50.2,20.968,50.2,46.464C463.972,270.599,442.499,292.071,416.002,292.102z"/><path d="M217.594,442.342l-2.456,15.84c5.513,0.856,11.068,1.424,16.64,1.704l0.8-16    C227.56,443.63,222.559,443.115,217.594,442.342z"/><path d="M161.714,420.99l-8.704,13.424c4.687,3.035,9.529,5.825,14.504,8.36l7.256-14.256    C170.291,426.236,165.933,423.723,161.714,420.99z"/><path d="M138.322,402.03l-11.304,11.368c3.952,3.947,8.107,7.685,12.448,11.2l10.056-12.496    C145.618,408.939,141.88,405.578,138.322,402.03z"/><path d="M188.538,434.63l-5.728,14.952c5.22,1.997,10.542,3.716,15.944,5.152l4.112-15.464    C198.012,437.975,193.23,436.426,188.538,434.63z"/><path d="M119.33,378.718l-13.4,8.744c3.053,4.671,6.345,9.181,9.864,13.512l12.416-10.096    C125.043,386.98,122.079,382.921,119.33,378.718z"/><path d="M97.802,322.934l-15.808,2.512c0.881,5.513,2.048,10.976,3.496,16.368l15.456-4.16    C99.64,332.806,98.59,327.892,97.802,322.934z"/><path d="M105.602,351.958l-14.92,5.768c2.011,5.207,4.294,10.305,6.84,15.272l14.232-7.304    C109.466,361.225,107.413,356.64,105.602,351.958z"/><path d="M262.618,442.358c-4.954,0.773-9.945,1.289-14.952,1.544l0.8,16c5.576-0.289,11.133-0.869,16.648-1.736L262.618,442.358z"/><path d="M382.242,322.686c-0.781,4.961-1.822,9.877-3.12,14.728l15.456,4.152c1.444-5.397,2.603-10.865,3.472-16.384    L382.242,322.686z"/><path d="M360.802,378.502c-2.745,4.227-5.709,8.307-8.88,12.224l12.432,10.08c3.512-4.327,6.797-8.835,9.84-13.504    L360.802,378.502z"/><path d="M374.474,351.742c-1.802,4.689-3.85,9.279-6.136,13.752l14.24,7.288c2.547-4.977,4.827-10.085,6.832-15.304    L374.474,351.742z"/><path d="M318.466,420.902c-4.21,2.73-8.56,5.237-13.032,7.512l7.272,14.248c4.974-2.538,9.813-5.334,14.496-8.376L318.466,420.902    z"/><path d="M341.834,401.934c-3.552,3.548-7.288,6.908-11.192,10.064l10.072,12.44c4.339-3.514,8.491-7.253,12.44-11.2    L341.834,401.934z"/><path d="M291.69,434.558c-4.687,1.797-9.464,3.349-14.312,4.648l4.136,15.456c5.397-1.442,10.714-3.17,15.928-5.176    L291.69,434.558z"/><path d="M96.002,260.102c-22.08-0.026-39.974-17.92-40-40h-16c0.035,30.913,25.087,55.965,56,56h24v-16H96.002z"/><path d="M328.002,108.102v16c17.673,0,32,14.327,32,32h16C375.972,129.605,354.499,108.133,328.002,108.102z"/></g><g transform="matrix(0.12502917647361755 0 0 0.12502917647361755 234 270)" id="L1_14"><path d="M71.937,247.805h16c0-13.255,10.745-24,24-24v-16C89.857,207.831,71.964,225.724,71.937,247.805z"/><path d="M119.937,271.805h-16c0.026,22.08,17.92,39.974,40,40v-16C130.683,295.805,119.937,285.06,119.937,271.805z"/><path d="M103.937,383.805h16c0-13.255,10.745-24,24-24v-16C121.857,343.831,103.964,361.724,103.937,383.805z"/><path d="M472.309,227.675c-8.584-14.787-23.452-24.842-40.372-27.302v-8.568c-0.05-36.795-27.8-67.648-64.384-71.584    C363.302,49.749,302.727-3.933,232.255,0.319c-64.538,3.894-116.008,55.363-119.902,119.902    c-36.596,3.921-64.364,34.778-64.416,71.584v8.568c-30.605,4.457-51.802,32.88-47.346,63.485    c2.463,16.911,12.512,31.772,27.29,40.355c-7.716,8.713-11.966,19.954-11.944,31.592c0.032,26.545,21.577,48.038,48.122,48.006    c0.226,0,0.452-0.002,0.678-0.006c14.63,31.588,45.113,52.871,79.808,55.72c3.816,23.212,23.868,40.255,47.392,40.28    c22.08-0.026,39.974-17.92,40-40v-24h16v24c0.026,22.08,17.92,39.974,40,40c23.524-0.03,43.572-17.075,47.384-40.288    c34.696-2.845,65.182-24.125,79.816-55.712h0.8c26.497-0.031,47.969-21.503,48-48c0.02-11.635-4.23-22.873-11.944-31.584    C478.741,288.693,487.837,254.423,472.309,227.675z M128.836,113.427c7.205-55.855,54.784-97.661,111.102-97.622    c61.825-0.043,111.979,50.041,112.022,111.866c0.039,56.318-41.767,103.897-97.622,111.102l54.24-94.968h19.36v-16h-64    c-3.032-0.001-5.805,1.712-7.16,4.424l-3.632,7.272l-5.208-52.496c-0.435-4.397-4.351-7.609-8.748-7.174    c-2.737,0.271-5.144,1.929-6.372,4.39l-21.824,43.584h-59.056v16h19.36l54.24,94.968    C164.221,230.863,120.926,174.744,128.836,113.427z M175.937,351.805v-16h128v16H175.937z M293.785,367.805    c-2.857,4.948-8.135,7.997-13.848,8h-80c-5.713-0.003-10.991-3.052-13.848-8H293.785z M183.937,319.805v-8h112v8H183.937z     M175.937,295.805v-16h128v16H175.937z M295.937,242.725v21.08h-112v-21.08C219.233,260.168,260.641,260.168,295.937,242.725z     M189.721,143.805h26.216c3.032,0.001,5.805-1.712,7.16-4.424l11.632-23.272l5.208,52.496c0.435,4.397,4.351,7.609,8.748,7.174    c2.737-0.271,5.144-1.929,6.372-4.39l13.824-27.584h21.272l-50.216,87.872L189.721,143.805z M429.345,304.133    c0.542,1.909,1.773,3.548,3.456,4.6c15.147,8.739,20.342,28.103,11.602,43.25c-6.697,11.607-19.975,17.742-33.154,15.318    c-3.717-0.582-7.332,1.526-8.656,5.048c-11.925,30.881-41.553,51.301-74.656,51.456c-4.418,0-8,3.582-8,8    c0,17.673-14.327,32-32,32c-13.255,0-24-10.745-24-24v-24h24v-16h-88v16h16v24c0,13.255-10.745,24-24,24    c-17.673,0-32-14.327-32-32c0-4.418-3.582-8-8-8c-33.103-0.155-62.731-20.575-74.656-51.456c-1.49-3.514-5.169-5.574-8.944-5.008    c-1.453,0.265-2.924,0.42-4.4,0.464c-17.629,0.041-31.953-14.218-31.993-31.846c-0.026-11.088,5.705-21.396,15.137-27.226    c3.747-2.342,4.886-7.277,2.544-11.024c-1.052-1.683-2.691-2.914-4.6-3.456c-21.234-6.094-33.508-28.247-27.415-49.482    c4.909-17.107,20.53-28.912,38.327-28.966c4.418,0,8-3.582,8-8v-16c0.049-27.973,20.718-51.626,48.432-55.424    c2.62,39.203,23.108,75.029,55.568,97.168v30.256c-4.418,0-8,3.582-8,8v32c0,4.418,3.582,8,8,8v8c-4.418,0-8,3.582-8,8v32    c0,4.418,3.582,8,8,8h1.136c3.637,14.085,16.317,23.945,30.864,24h80c14.547-0.055,27.227-9.915,30.864-24h1.136    c4.418,0,8-3.582,8-8v-32c0-4.418-3.582-8-8-8v-8c4.418,0,8-3.582,8-8v-32c0-4.418-3.582-8-8-8v-30.256    c32.462-22.141,52.95-57.97,55.568-97.176c27.717,3.798,48.388,27.456,48.432,55.432v16c0,4.418,3.582,8,8,8    c22.091,0.063,39.949,18.022,39.886,40.113c-0.051,17.8-11.857,33.425-28.966,38.335    C430.607,295.459,428.139,299.883,429.345,304.133z"/><path d="M367.937,207.805v16c13.255,0,24,10.745,24,24h16C407.911,225.724,390.018,207.831,367.937,207.805z"/><path d="M359.937,271.805c0,13.255-10.745,24-24,24v16c22.08-0.026,39.974-17.92,40-40H359.937z"/><path d="M335.937,343.805v16c13.255,0,24,10.745,24,24h16C375.911,361.724,358.018,343.831,335.937,343.805z"/><rect x="99px" y="10px" width="16px" height="33px" transform="matrix(0.7071 -0.7071 0.7071 0.7071 11.9533 84.4715)"/><rect x="71px" y="63px" width="32px" height="16px"/><rect x="375px" y="63px" width="32px" height="16px"/><rect x="354px" y="19px" width="33px" height="16px" transform="matrix(0.7071 -0.7071 0.7071 0.7071 89.2838 271.1471)"/></g><g transform="matrix(0.12499895691871643 0 0 0.12499895691871643 286 212.99999911499765)" id="L1_15"><path d="M469.38,290.63c-6.805-6.806-16.036-10.629-25.66-10.628h-2.12c-0.592,0-1.168,0.12-1.752,0.144    c0.064-1.688,0.136-3.384,0.136-5.016c0.023-33.884-10.829-66.88-30.96-94.136l26.52-29.84c8.785-9.926,7.86-25.093-2.065-33.878    c-5.913-5.234-14.023-7.224-21.687-5.322l-33.84,8.456c-3.512,0.88-7.177-0.708-8.936-3.872l-24.968-44.944    c-6.436-11.588-21.047-15.764-32.634-9.328c-1.08,0.6-2.111,1.282-3.086,2.04l-41.168,32    c17.918-19.447,16.679-49.738-2.768-67.656c-19.447-17.918-49.738-16.679-67.656,2.768c-7.516,8.157-11.966,18.67-12.592,29.743    c-7.021,1.832-12.823,6.765-15.76,13.4l-20.904,47.04l-23.24-6.344c-12.787-3.492-25.983,4.043-29.475,16.83    c-2.27,8.314,0.091,17.206,6.187,23.298l25.84,25.84c-25.369,34.487-35.689,77.777-28.608,120L96,301.762v-13.76    c0-4.418-3.582-8-8-8H8c-4.418,0-8,3.582-8,8v184c0,4.418,3.582,8,8,8h278.36c13.285-0.005,26.137-4.728,36.264-13.328    l146.752-124.736C483.545,327.771,483.547,304.8,469.38,290.63z M80,464.002H16v-168h64V464.002z M232,32.002    c17.625-0.039,31.943,14.218,31.982,31.842c0.03,13.777-8.785,26.019-21.862,30.358l-37.064-28.8    c-1.512-1.165-3.155-2.147-4.896-2.928C200.973,45.462,214.969,32.068,232,32.002z M144.704,184.178    c2.775-3.438,2.238-8.475-1.2-11.25c-1.188-0.959-2.626-1.558-4.144-1.726l-27.104-27.12c-3.121-3.127-3.117-8.192,0.01-11.314    c2.024-2.02,4.972-2.807,7.734-2.062l29.872,8.152c3.812,1.039,7.813-0.86,9.416-4.472l23.696-53.32    c1.797-4.036,6.526-5.852,10.562-4.055c0.589,0.262,1.144,0.595,1.654,0.991l46.04,35.808c8.667,6.742,20.805,6.742,29.472,0    l47.432-36.888c3.48-2.722,8.508-2.107,11.23,1.374c0.253,0.324,0.481,0.667,0.682,1.026l24.968,44.944    c5.273,9.494,16.264,14.265,26.8,11.632l33.848-8.464c4.287-1.069,8.629,1.54,9.698,5.827c0.639,2.564-0.029,5.278-1.786,7.253    l-27.256,30.688c-4.37,0.652-7.384,4.724-6.731,9.093c0.211,1.415,0.798,2.748,1.699,3.859    c21.124,25.617,32.685,57.781,32.704,90.984c0,3.08-0.168,6.352-0.408,9.752c-1.421,0.786-2.787,1.668-4.088,2.64l-77.64,59.72    c-11.276,8.661-24.491,14.446-38.504,16.856l-101.84,17.44c-4.583,0.632-8.81-2.571-9.442-7.154    c-0.053-0.381-0.079-0.766-0.078-1.151c0.015-3.946,2.769-7.352,6.624-8.192l78.064-16.736    c18.654-3.979,30.55-22.327,26.571-40.981c-3.4-15.936-17.476-27.328-33.771-27.331H209.24c-17.418,0.01-34.77,2.159-51.664,6.4    l-43.64,10.912c-1.221-7.33-1.869-14.745-1.936-22.176C112.024,241.943,123.585,209.789,144.704,184.178z M458.536,330.186    L312.264,454.49c-7.236,6.138-16.416,9.508-25.904,9.512H96V318.25l65.464-16.368c15.625-3.908,31.67-5.882,47.776-5.88h60.216    c10.242,0.019,18.529,8.336,18.51,18.578c-0.016,8.724-6.11,16.257-14.638,18.094l-78.064,16.736    c-13.153,2.868-21.491,15.856-18.623,29.01c2.724,12.49,14.634,20.754,27.287,18.934l102.12-17.488    c16.577-2.849,32.211-9.692,45.552-19.936l77.64-59.72c3.547-2.72,7.89-4.199,12.36-4.208h2.104    c11.199,0.009,20.278,9.081,20.296,20.28C464.043,321.449,462.085,326.431,458.536,330.186z"/><path d="M392,0.002c-26.51,0-48,21.49-48,48c0.031,26.497,21.503,47.969,48,48c26.51,0,48-21.49,48-48S418.51,0.002,392,0.002z     M392,80.002c-17.673,0-32-14.327-32-32s14.327-32,32-32c17.673,0,32,14.327,32,32S409.673,80.002,392,80.002z"/><path d="M272,200.002c-4.418,0-8-3.582-8-8s3.582-8,8-8s8,3.582,8,8h16c-0.042-10.134-6.445-19.15-16-22.528v-17.472h-16v17.472    c-12.473,4.393-19.023,18.066-14.629,30.539c3.38,9.596,12.455,16.009,22.629,15.989c4.418,0,8,3.582,8,8s-3.582,8-8,8    s-8-3.582-8-8h-16c0.042,10.134,6.445,19.15,16,22.528v17.472h16V246.53c12.473-4.393,19.023-18.066,14.63-30.539    C291.249,206.395,282.174,199.983,272,200.002z"/><rect x="160px" y="176px" width="16px" height="16px"/><rect x="192px" y="176px" width="16px" height="16px"/><rect x="224px" y="176px" width="16px" height="16px"/><rect x="304px" y="176px" width="16px" height="16px"/><rect x="336px" y="176px" width="16px" height="16px"/><rect x="368px" y="176px" width="16px" height="16px"/></g><g transform="matrix(0.125 0 0 0.125 308 267.00000070190436)" id="L1_16"><path d="M472,167.392h-64c-4.418,0-8,3.582-8,8v8H208c-2.122,0-4.156,0.844-5.656,2.344L192,196.08l-10.344-10.344    c-1.5-1.5-3.534-2.344-5.656-2.344H80v-8c0-4.418-3.582-8-8-8H8c-4.418,0-8,3.582-8,8v224c0,4.418,3.582,8,8,8h64    c4.418,0,8-3.582,8-8v-8h6.112c4.518,10.702,16.051,16.632,27.384,14.08c2.936,12.926,15.794,21.024,28.72,18.088c0,0,0,0,0,0    c2.815,10.964,12.681,18.642,24,18.68c1.584-0.029,3.161-0.206,4.712-0.528c3.489,13.309,17.106,21.27,30.415,17.781    c6.125-1.606,11.409-5.483,14.777-10.845l5.32-8.456l24.864,24.856c9.702,9.749,25.471,9.787,35.219,0.084    c4.508-4.486,7.128-10.527,7.325-16.884c13.101-0.364,23.636-10.899,24-24c13.101-0.364,23.636-10.899,24-24    c10.376-0.232,19.476-6.989,22.696-16.856L400,390.168v9.224c0,4.418,3.582,8,8,8h64c4.418,0,8-3.582,8-8v-224    C480,170.974,476.418,167.392,472,167.392z M64,191.392v200H16v-208h48V191.392z M116.456,385.872    c-2.651,4.197-8.203,5.451-12.4,2.8c-4.197-2.651-5.451-8.203-2.8-12.4l24.112-38.296c1.644-2.615,4.519-4.2,7.608-4.192    c1.699-0.011,3.365,0.467,4.8,1.376c4.186,2.643,5.445,8.174,2.816,12.368L116.456,385.872z M145.176,403.952    c-2.638,4.197-8.179,5.462-12.376,2.824c-4.197-2.638-5.462-8.179-2.824-12.376l24.112-38.296    c2.638-4.197,8.179-5.462,12.376-2.824c4.197,2.638,5.462,8.179,2.824,12.376L145.176,403.952z M173.888,422.04    c-2.638,4.197-8.179,5.462-12.376,2.824c-4.197-2.638-5.462-8.179-2.824-12.376l24.112-38.296    c2.638-4.197,8.179-5.462,12.376-2.824c4.197,2.638,5.462,8.179,2.824,12.376L173.888,422.04z M226.728,401.792l-24.112,38.296    c-2.651,4.197-8.203,5.451-12.4,2.8c-4.197-2.651-5.451-8.203-2.8-12.4l24.112-38.288c1.26-2.026,3.275-3.465,5.6-4    c0.657-0.143,1.328-0.215,2-0.216c4.948,0,8.96,4.011,8.96,8.96c0,1.693-0.48,3.352-1.384,4.784L226.728,401.792z     M270.312,453.736l0.017-0.017c0,0,0,0,0,0C270.323,453.725,270.318,453.73,270.312,453.736z M270.336,453.711    c-3.507,3.489-9.176,3.487-12.68-0.007l-27.432-27.432L240,410.736l30.312,30.312C273.813,444.54,273.823,450.207,270.336,453.711    z M342.361,381.719c-0.006,0.006-0.011,0.011-0.017,0.017v-0.032c-3.506,3.497-9.182,3.497-12.688,0l-44-44l-11.312,11.312l44,44    c3.504,3.504,3.504,9.184,0,12.688c-3.504,3.504-9.184,3.504-12.688,0l-44-44l-11.312,11.312l44,44    c3.504,3.504,3.504,9.184,0,12.688c-3.504,3.504-9.184,3.504-12.688,0l-36-36l-2.16-2.152v-0.064    c-2.95-13.122-15.809-21.512-29.008-18.928c-3.257-12.69-15.862-20.624-28.712-18.072c-3.254-12.704-15.875-20.645-28.736-18.08    c-3.442-13.303-17.016-21.297-30.318-17.856c-6.173,1.597-11.497,5.503-14.874,10.911L87.736,367.76    c-1.446,2.356-2.492,4.935-3.096,7.632H80v-176h92.688l8,8l-18.344,18.344c-11.96,11.96-11.96,31.352,0,43.312    c11.96,11.96,31.352,11.96,43.312,0L224,250.704l118.344,118.344C345.848,372.542,345.855,378.216,342.361,381.719z M400,373.944    l-36.16-6.024l-10.184-10.184l-124-124c-3.124-3.123-8.188-3.123-11.312,0l-24,24c-5.788,5.528-14.9,5.528-20.688,0    c-5.707-5.715-5.707-14.973,0-20.688l37.656-37.656H400V373.944z M464,391.392h-48v-208h48V391.392z"/><path d="M240,39.392c-35.346,0-64,28.654-64,64c0.04,35.33,28.67,63.96,64,64c35.346,0,64-28.654,64-64    C304,68.046,275.346,39.392,240,39.392z M240,127.392c-4.418,0-8-3.582-8-8h-16c0.042,10.134,6.445,19.15,16,22.528v8.752    c-26.112-4.392-43.72-29.12-39.328-55.232c3.389-20.151,19.177-35.939,39.328-39.328v8.752    c-12.473,4.393-19.023,18.066-14.629,30.539c3.38,9.596,12.455,16.009,22.629,15.989c4.418,0,8,3.582,8,8    S244.418,127.392,240,127.392z M248,150.672v-8.752c12.473-4.393,19.023-18.066,14.629-30.539    c-3.38-9.596-12.455-16.009-22.629-15.989c-4.418,0-8-3.582-8-8s3.582-8,8-8s8,3.582,8,8h16c-0.042-10.134-6.445-19.15-16-22.528    v-8.752c26.112,4.392,43.72,29.12,39.328,55.232C283.939,131.494,268.151,147.283,248,150.672z"/><path d="M314.48,28.136l-8.288,13.656c4.414,2.677,8.664,5.616,12.728,8.8l9.88-12.568    C324.228,34.446,319.446,31.144,314.48,28.136z"/><path d="M282.792,13.864l-4.76,15.28c4.932,1.536,9.767,3.366,14.48,5.48l6.552-14.592    C293.769,17.649,288.335,15.59,282.792,13.864z"/><path d="M363.24,76.88l-13.688,8.28c2.673,4.409,5.075,8.978,7.192,13.68l14.592-6.568    C368.951,86.982,366.248,81.842,363.24,76.88z"/><path d="M341.816,49.592L330.504,60.88c3.657,3.652,7.095,7.518,10.296,11.576l12.544-9.864    C349.758,58.037,345.909,53.697,341.816,49.592z"/><path d="M377.512,108.552l-15.272,4.744c1.529,4.924,2.76,9.936,3.688,15.008l15.736-2.856    C380.628,119.736,379.241,114.093,377.512,108.552z"/><path d="M248.6,7.648l-0.944,16c5.15,0.309,10.276,0.926,15.352,1.848l2.864-15.784C260.161,8.682,254.393,7.992,248.6,7.648z"/><path d="M138.088,49.648c-4.1,4.109-7.95,8.461-11.528,13.032l12.64,9.864c3.17-4.05,6.579-7.908,10.208-11.552L138.088,49.648z"/><path d="M116.672,76.992c-2.998,4.973-5.697,10.121-8.08,15.416l14.592,6.56c2.128-4.701,4.537-9.269,7.216-13.68L116.672,76.992z    "/><path d="M102.432,108.712c-1.717,5.551-3.095,11.202-4.128,16.92l15.736,2.848c0.921-5.08,2.148-10.1,3.672-15.032    L102.432,108.712z"/><path d="M165.384,28.192c-4.959,3.013-9.733,6.32-14.296,9.904l9.896,12.576c4.057-3.182,8.299-6.121,12.704-8.8L165.384,28.192z"/><path d="M231.216,7.616c-5.794,0.351-11.562,1.051-17.272,2.096L216.8,25.48c5.086-0.929,10.223-1.552,15.384-1.864L231.216,7.616    z"/><path d="M197.016,13.912c-5.539,1.734-10.967,3.802-16.256,6.192l6.576,14.576c4.711-2.122,9.547-3.958,14.48-5.496    L197.016,13.912z"/></g><g transform="matrix(0.12499791383743286 0 0 0.12499791383743286 -19 141.00000013732677)" id="L1_17"><path d="M477.004,465.756l-40-32c-1.419-1.135-3.183-1.753-5-1.752h-76.248l-26.664-32h110.912c22.08-0.026,39.974-17.92,40-40    v-320c-0.026-22.08-17.92-39.974-40-40h-400c-22.08,0.026-39.974,17.92-40,40v320c0.026,22.08,17.92,39.974,40,40h110.92    l-26.664,32H48.004c-1.817-0.001-3.581,0.617-5,1.752l-40,32c-3.451,2.759-4.011,7.794-1.252,11.244    c1.519,1.899,3.82,3.005,6.252,3.004h464c4.418,0.002,8.002-3.578,8.004-7.996C480.009,469.575,478.904,467.275,477.004,465.756z     M40.004,384.004c-13.255,0-24-10.745-24-24v-320c0-13.255,10.745-24,24-24h400c13.255,0,24,10.745,24,24v320    c0,13.255-10.745,24-24,24H40.004z M171.756,400.004h136.496l26.672,32h-189.84L171.756,400.004z M30.812,464.004l20-16h378.4    l19.984,16H30.812z"/><path d="M440.004,32.004h-400c-4.418,0-8,3.582-8,8v288c0,4.418,3.582,8,8,8h400c4.418,0,8-3.582,8-8v-288    C448.004,35.586,444.422,32.004,440.004,32.004z M432.004,320.004h-384v-272h384V320.004z"/><rect x="200px" y="352px" width="80px" height="16px"/><path d="M168.004,136.004h16c0-17.673,14.327-32,32-32v-16C189.507,88.035,168.035,109.507,168.004,136.004z"/><path d="M408.004,64.004h-336c-4.418,0-8,3.582-8,8v32c0,4.418,3.582,8,8,8h76.2c-7.04,19.583-5.161,41.265,5.144,59.344    l-9.344,9.344l-2.344-2.344c-3.124-3.123-8.188-3.123-11.312,0l-64,64c-11.96,11.96-11.96,31.352,0,43.312    c11.96,11.96,31.352,11.96,43.312,0l64-64c3.123-3.124,3.123-8.188,0-11.312l-2.344-2.344l9.344-9.344    c34.492,19.608,78.349,7.542,97.957-26.95c10.344-18.196,12.238-39.998,5.187-59.706h124.2c4.418,0,8-3.582,8-8v-32    C416.004,67.586,412.422,64.004,408.004,64.004z M80.004,96.004v-16h90.848c-5.665,4.567-10.611,9.961-14.672,16H80.004z     M98.348,274.348c-5.836,5.59-15.098,5.391-20.688-0.445c-5.421-5.659-5.421-14.584,0-20.243l58.344-58.344l2.344,2.344l16,16    l2.344,2.344L98.348,274.348z M160.004,196.692l-4.688-4.688l7.568-7.568c1.493,1.632,3.056,3.195,4.688,4.688L160.004,196.692z     M216.004,192.004c-30.928,0-56-25.072-56-56c0-30.928,25.072-56,56-56c30.913,0.035,55.965,25.087,56,56    C272.004,166.932,246.932,192.004,216.004,192.004z M400.004,96.004H275.828c-4.061-6.039-9.007-11.433-14.672-16h138.848V96.004z    "/><path d="M408.004,144.004h-48v16h28.688l-46.288,46.264l-26.84-13.424c-2.925-1.461-6.444-0.995-8.888,1.176L239.3,253.924    l-18.856-12.576c-2.982-1.986-6.92-1.747-9.64,0.584l-56,48l10.4,12.152l51.4-44.056l18.96,12.64    c3.025,2.019,7.032,1.743,9.752-0.672l67.952-60.4l27.16,13.6c3.079,1.539,6.797,0.937,9.232-1.496l50.344-50.384v28.688h16v-48    C416.004,147.586,412.422,144.004,408.004,144.004z"/></g><g transform="matrix(0.125 0 0 0.125 7 215)" id="L1_18"><path d="M106.904,376.368c12.48-9.821,20.159-24.515,21.096-40.368c0-52.896-30.456-64-56-64s-56,11.104-56,64    c0.93,15.862,8.61,30.566,21.096,40.392C15.89,379.005-0.031,397.033,0,418.4V480h16v-61.6c0-14.58,11.82-26.4,26.4-26.4h17.76    l-11.592,29.024c-1.189,2.973-0.49,6.369,1.776,8.632l16,16c3.124,3.123,8.188,3.123,11.312,0l16-16    c2.266-2.263,2.965-5.659,1.776-8.632L83.816,392H101.6c14.58,0,26.4,11.82,26.4,26.4V480h16v-61.6    C144.043,397.024,128.119,378.982,106.904,376.368z M32.416,327.536C34.584,300.728,47.2,288,72,288    c22.704,0,35.2,10.736,38.776,33.136l-26.656-16c-3.789-2.273-8.703-1.044-10.976,2.745c-0.3,0.5-0.544,1.03-0.728,1.583    C68.368,321.608,46.52,326.2,32.416,327.536z M72,428.664l-6.616-6.616L72,405.536l6.616,16.536L72,428.664z M72,376    c-17.843-3.039-32.686-15.412-38.888-32.416c13.696-1.128,38.4-5.28,49.92-20.432l28.6,17.16C108.416,359.896,84.28,376,72,376z"/><rect x="32px" y="448px" width="16px" height="32px"/><rect x="96px" y="448px" width="16px" height="32px"/><path d="M274.904,376.368c12.48-9.821,20.159-24.515,21.096-40.368c0-52.896-30.456-64-56-64s-56,11.104-56,64    c0.93,15.862,8.61,30.566,21.096,40.392C183.89,379.005,167.969,397.033,168,418.4V480h16v-61.6c0-14.58,11.82-26.4,26.4-26.4    h17.76l-11.608,29.024c-1.189,2.973-0.49,6.369,1.776,8.632l16,16c3.124,3.123,8.188,3.123,11.312,0l16-16    c2.266-2.263,2.965-5.659,1.776-8.632L251.816,392H269.6c14.58,0,26.4,11.82,26.4,26.4V480h16v-61.6    C312.043,397.024,296.119,378.982,274.904,376.368z M200.416,327.536C202.584,300.728,215.2,288,240,288    c22.704,0,35.2,10.736,38.776,33.136l-26.656-16c-3.789-2.273-8.703-1.044-10.976,2.745c-0.3,0.5-0.544,1.03-0.728,1.583    C236.368,321.608,214.52,326.2,200.416,327.536z M240,428.664l-6.616-6.616L240,405.536l6.616,16.536L240,428.664z M240,376    c-17.843-3.039-32.686-15.412-38.888-32.416c13.696-1.128,38.4-5.28,49.92-20.432l28.6,17.16C276.416,359.896,252.28,376,240,376z    "/><rect x="200px" y="448px" width="16px" height="32px"/><rect x="264px" y="448px" width="16px" height="32px"/><path d="M461.112,383.128c-5.465-3.627-11.698-5.933-18.208-6.736C455.39,366.566,463.07,351.862,464,336    c0-52.896-30.456-64-56-64s-56,11.104-56,64c0.93,15.862,8.61,30.566,21.096,40.392C351.89,379.005,335.969,397.033,336,418.4V480    h16v-61.6c0-14.58,11.82-26.4,26.4-26.4h17.76l-11.608,29.024c-1.189,2.973-0.49,6.369,1.776,8.632l16,16    c3.124,3.123,8.188,3.123,11.312,0l16-16c2.266-2.263,2.965-5.659,1.776-8.632L419.816,392H437.6c14.58,0,26.4,11.82,26.4,26.4    V480h16v-61.6C480.006,404.222,472.916,390.982,461.112,383.128z M368.416,327.536C370.584,300.728,383.2,288,408,288    c22.704,0,35.2,10.736,38.776,33.136l-26.656-16c-3.789-2.273-8.703-1.044-10.976,2.745c-0.3,0.5-0.544,1.03-0.728,1.583    C404.368,321.608,382.52,326.2,368.416,327.536z M408,428.688l-6.616-6.616L408,405.536l6.616,16.536L408,428.688z M408,376    c-17.843-3.039-32.686-15.412-38.888-32.416c13.696-1.128,38.4-5.28,49.92-20.432l28.6,17.16C444.416,359.896,420.28,376,408,376z    "/><rect x="368px" y="448px" width="16px" height="32px"/><rect x="432px" y="448px" width="16px" height="32px"/><path d="M456,80H328c-13.255,0-24,10.745-24,24v8h-64V48c0-13.255-10.745-24-24-24H24C10.745,24,0,34.745,0,48v96    c0,13.255,10.745,24,24,24h17.6l24.272,29.12c2.83,3.393,7.874,3.85,11.268,1.02c0.37-0.309,0.712-0.65,1.02-1.02L102.4,168H136    v32c0,13.255,10.745,24,24,24h49.6l24.272,29.12c2.83,3.393,7.874,3.85,11.268,1.02c0.37-0.309,0.712-0.65,1.02-1.02L270.4,224    H320c13.255,0,24-10.745,24-24v-8h41.6l24.272,29.12c2.83,3.393,7.874,3.85,11.268,1.02c0.37-0.309,0.712-0.65,1.02-1.02    L446.4,192h9.6c13.255,0,24-10.745,24-24v-64C480,90.745,469.255,80,456,80z M98.664,152c-2.374,0.001-4.625,1.056-6.144,2.88    L72,179.504L51.48,154.88c-1.519-1.824-3.77-2.879-6.144-2.88H24c-4.418,0-8-3.582-8-8V48c0-4.418,3.582-8,8-8h192    c4.418,0,8,3.582,8,8v96c0,4.418-3.582,8-8,8H98.664z M328,200c0,4.418-3.582,8-8,8h-53.336c-2.374,0.001-4.625,1.056-6.144,2.88    L240,235.504l-20.52-24.624c-1.519-1.824-3.77-2.879-6.144-2.88H160c-4.418,0-8-3.582-8-8v-32h64c13.255,0,24-10.745,24-24v-16h80    c4.418,0,8,3.582,8,8V200z M464,168c0,4.418-3.582,8-8,8h-13.336c-2.374,0.001-4.625,1.056-6.144,2.88L416,203.504l-20.52-24.624    c-1.519-1.824-3.77-2.879-6.144-2.88H344v-40c0-13.255-10.745-24-24-24v-8c0-4.418,3.582-8,8-8h128c4.418,0,8,3.582,8,8V168z"/><rect x="32px" y="56px" width="16px" height="16px"/><rect x="64px" y="56px" width="16px" height="16px"/><rect x="96px" y="56px" width="16px" height="16px"/><rect x="256px" y="144px" width="16px" height="16px"/><rect x="288px" y="144px" width="16px" height="16px"/><rect x="368px" y="112px" width="16px" height="16px"/><rect x="400px" y="112px" width="16px" height="16px"/><rect x="432px" y="112px" width="16px" height="16px"/><path d="M280,0v16c26.497,0.031,47.969,21.503,48,48h16C343.96,28.67,315.33,0.04,280,0z"/><path d="M112,208H96c0.04,35.33,28.67,63.96,64,64v-16C133.503,255.969,112.031,234.497,112,208z"/></g><g transform="matrix(0.125 0 0 0.125 1 -14.999999221801772)" id="L1_19"><path d="M28,19.999c-15.464,0-28,12.536-28,28s12.536,28,28,28s28-12.536,28-28S43.464,19.999,28,19.999z M28,59.999    c-6.627,0-12-5.373-12-12s5.373-12,12-12s12,5.373,12,12S34.627,59.999,28,59.999z"/><path d="M452,131.999c-15.464,0-28,12.536-28,28s12.536,28,28,28c15.464,0,28-12.536,28-28S467.464,131.999,452,131.999z     M452,171.999c-6.627,0-12-5.373-12-12c0-6.627,5.373-12,12-12c6.627,0,12,5.373,12,12C464,166.626,458.627,171.999,452,171.999z"/><rect x="104px" y="35px" width="16px" height="24px"/><rect x="136px" y="35px" width="16px" height="24px"/><rect x="168px" y="35px" width="16px" height="24px"/><rect x="200px" y="35px" width="16px" height="24px"/><rect x="232px" y="35px" width="16px" height="24px"/><path d="M252,3.999H108c-24.301,0-44,19.699-44,44s19.699,44,44,44h9.752l-5.512,22.056c-1.074,4.286,1.529,8.631,5.815,9.705    c2.189,0.549,4.508,0.147,6.385-1.105l45.96-30.656H252c24.301,0,44-19.699,44-44S276.301,3.999,252,3.999z M252,75.999h-84    c-1.58,0.003-3.124,0.47-4.44,1.344l-30.76,20.52l2.976-11.92c1.074-4.286-1.53-8.631-5.816-9.704    c-0.641-0.161-1.299-0.241-1.96-0.24h-20c-15.464,0-28-12.536-28-28s12.536-28,28-28h144c15.464,0,28,12.536,28,28    S267.464,75.999,252,75.999z"/><rect x="360px" y="147px" width="16px" height="24px"/><rect x="328px" y="147px" width="16px" height="24px"/><rect x="296px" y="147px" width="16px" height="24px"/><rect x="264px" y="147px" width="16px" height="24px"/><rect x="232px" y="147px" width="16px" height="24px"/><path d="M372,115.999H228c-24.29,0.026-43.974,19.71-44,44c0.026,24.29,19.71,43.974,44,44h81.6l45.984,30.656    c3.675,2.452,8.643,1.461,11.095-2.215c1.253-1.877,1.654-4.196,1.105-6.385l-5.536-22.056H372c24.301,0,44-19.699,44-44    S396.301,115.999,372,115.999z M372,187.999h-20c-4.418,0-8,3.582-8,8c0,0.655,0.081,1.308,0.24,1.944l2.976,11.92l-30.776-20.52    c-1.316-0.874-2.86-1.341-4.44-1.344h-84c-15.464,0-28-12.536-28-28s12.536-28,28-28h144c15.464,0,28,12.536,28,28    S387.464,187.999,372,187.999z"/><path d="M452,371.999c-15.464,0-28,12.536-28,28c0,15.464,12.536,28,28,28c15.464,0,28-12.536,28-28    C480,384.535,467.464,371.999,452,371.999z M452,411.999c-6.627,0-12-5.373-12-12c0-6.627,5.373-12,12-12c6.627,0,12,5.373,12,12    C464,406.626,458.627,411.999,452,411.999z"/><rect x="360px" y="387px" width="16px" height="24px"/><rect x="328px" y="387px" width="16px" height="24px"/><rect x="296px" y="387px" width="16px" height="24px"/><rect x="264px" y="387px" width="16px" height="24px"/><rect x="232px" y="387px" width="16px" height="24px"/><path d="M372,355.999H228c-24.301,0-44,19.699-44,44s19.699,44,44,44h81.6l45.96,30.656c3.675,2.452,8.643,1.461,11.095-2.215    c1.253-1.877,1.654-4.196,1.105-6.385l-5.512-22.056H372c24.301,0,44-19.699,44-44S396.301,355.999,372,355.999z M372,427.999h-20    c-4.418,0-8,3.582-8,8c0,0.655,0.081,1.308,0.24,1.944l2.976,11.92l-30.776-20.52c-1.316-0.874-2.86-1.341-4.44-1.344h-84    c-15.464,0-28-12.536-28-28c0-15.464,12.536-28,28-28h144c15.464,0,28,12.536,28,28C400,415.463,387.464,427.999,372,427.999z"/><path d="M28,251.999c-15.464,0-28,12.536-28,28c0,15.464,12.536,28,28,28s28-12.536,28-28C56,264.535,43.464,251.999,28,251.999z     M28,291.999c-6.627,0-12-5.373-12-12c0-6.627,5.373-12,12-12s12,5.373,12,12C40,286.626,34.627,291.999,28,291.999z"/><rect x="104px" y="267px" width="16px" height="24px"/><rect x="136px" y="267px" width="16px" height="24px"/><rect x="168px" y="267px" width="16px" height="24px"/><rect x="200px" y="267px" width="16px" height="24px"/><rect x="232px" y="267px" width="16px" height="24px"/><path d="M252,235.999H108c-24.29,0.026-43.974,19.71-44,44c0.026,24.29,19.71,43.974,44,44h9.752l-5.512,22.056    c-1.074,4.286,1.529,8.631,5.815,9.705c2.189,0.549,4.508,0.147,6.385-1.105l45.96-30.656H252c24.301,0,44-19.699,44-44    S276.301,235.999,252,235.999z M252,307.999h-84c-1.58,0.003-3.124,0.47-4.44,1.344l-30.76,20.52l2.976-11.92    c1.074-4.286-1.53-8.631-5.816-9.704c-0.641-0.161-1.299-0.241-1.96-0.24h-20c-15.464,0-28-12.536-28-28c0-15.464,12.536-28,28-28    h144c15.464,0,28,12.536,28,28C280,295.463,267.464,307.999,252,307.999z"/></g><path d="M473.291,123.978c-8.069-18.475-22.816-33.222-41.291-41.291V28c0-4.418-3.582-8-8-8h-40c-4.418,0-8,3.582-8,8v1.408    l-89.512,17.408l-72,14L97.392,83.584L44,53.056c-3.826-2.209-8.719-0.898-10.928,2.928C32.367,57.205,31.997,58.59,32,60v200    c0,4.418,3.582,8,8,8c1.668,0.004,3.295-0.519,4.648-1.496l53.2-38L144,237.48v14.728c-6.883-5.294-15.316-8.179-24-8.208h-16    c-4.418,0-8,3.582-8,8v56H0v16h104c4.418,0,8-3.582,8-8v-56h8c13.255,0,24,10.745,24,24v32c0,4.418,3.582,8,8,8h112v24h-48v16h24    v64c0,8.837-7.163,16-16,16H115.312l-29.656-29.656c-1.5-1.5-3.534-2.344-5.656-2.344H0v16h76.688l29.656,29.656    c1.5,1.5,3.534,2.344,5.656,2.344h112c17.673,0,32-14.327,32-32v-64h16c4.418,0,8-3.582,8-8v-40c0-4.418-3.582-8-8-8h-48v-54.96    l62.472,12.144L376,282.592V284c0,4.418,3.582,8,8,8h40c4.418,0,8-3.582,8-8v-54.688    C472.489,211.627,490.976,164.468,473.291,123.978z M88,215.88l-40,28.576V73.792L88,96.64V215.88z M208,308h-48v-67.408    l1.184,0.232L208,250.512V308z M208,233.6l-43.2-8.4l-11.2-2.32c-0.224,0-0.44,0-0.664,0L104,213.408V98.592L208,78.4V233.6z     M280,247.632l-56-10.888V75.256l56-10.888V247.632z M376,266.296l-80-15.552V61.256l80-15.552V266.296z M416,276h-24V36h24V276z     M455.515,187.796c-5.622,9.779-13.736,17.894-23.515,23.515V100.688C462.548,118.248,473.076,157.248,455.515,187.796z" transform="matrix(0.1250002533197403 0 0 0.1250002533197403 -10 72)" id="L1_20"/><g transform="matrix(0.12499973922967911 0 0 0.12499973922967911 89.99999998474124 238)" id="L1_22"><path d="M385.008,174.337c-17.729-66.958-86.382-106.865-153.34-89.136c-66.958,17.729-106.865,86.382-89.136,153.34    c4.152,15.681,11.307,30.408,21.068,43.364c-1.427,5.753-2.536,11.581-3.32,17.456l-24.584,24.584l-1.456-1.456    c-9.637-9.649-25.268-9.674-34.936-0.056L3.392,418.345c-3.123,3.124-3.123,8.188,0,11.312l37.904,37.904    c3.124,3.123,8.188,3.123,11.312,0l95.944-95.912c9.618-9.668,9.593-25.299-0.056-34.936l-1.456-1.456l12.08-12.08    c1.792,87.03,72.784,156.686,159.832,156.824h0.472h0.272c88.364-0.486,159.604-72.513,159.118-160.877    C478.471,256.694,441.846,200.165,385.008,174.337z M137.208,360.337l-90.256,90.256L20.36,424.001l90.256-90.256    c1.621-1.62,3.82-2.527,6.112-2.52c2.323-0.002,4.549,0.926,6.184,2.576l14.24,14.2c1.65,1.635,2.578,3.861,2.576,6.184    C139.749,356.491,138.841,358.709,137.208,360.337z M462.632,311.665l-49.496,0.12c-0.562-18.973-3.218-37.826-7.92-56.216    c17.182,3.27,33.837,8.871,49.504,16.648C459.193,284.931,461.856,298.21,462.632,311.665z M444.984,250.401    c-14.618-5.379-29.682-9.462-45.016-12.2c-2.954-8.519-6.531-16.808-10.704-24.8c0.336-6.427,0.176-12.87-0.48-19.272    C412.436,207.228,431.915,226.732,444.984,250.401z M387.816,252.337c5.61,19.353,8.742,39.339,9.32,59.48l-63.656,0.184    c22.065-14.548,38.907-35.763,48.072-60.552l0-0.032C383.68,251.713,385.784,252.017,387.816,252.337z M175.376,328.337    l49.384-0.12c0.524,18.738,3.075,37.363,7.608,55.552c-17.456-3.45-34.28-9.553-49.888-18.096    C178.462,353.599,176.072,341.043,175.376,328.337z M175.184,312.345c0.112-1.944,0.288-3.824,0.464-5.728l5.6-5.6    c4.605,4.114,9.507,7.884,14.664,11.28L175.184,312.345z M192.184,388.177c14.716,5.811,29.949,10.215,45.496,13.152    c6.352,19.534,16.58,37.584,30.072,53.072C235.46,442.063,208.653,418.571,192.184,388.177z M240.856,330.329    c18.856,3.63,38.296,2.85,56.8-2.28l13.296-0.048l0.152,64.536c-20.476-0.238-40.905-2.021-61.112-5.336    C244.66,368.683,241.592,349.586,240.856,330.329z M255.936,404.417c18.303,2.535,36.748,3.914,55.224,4.128v-0.008l0.12,54.648    C288.752,458.825,268.88,436.585,255.936,404.417z M263.248,315.801c-60.31-0.044-109.164-48.971-109.12-109.28    c0.021-28.993,11.571-56.787,32.104-77.256c20.464-20.463,48.237-31.929,77.176-31.864c60.31,0.044,109.164,48.971,109.12,109.28    C372.484,266.991,323.557,315.846,263.248,315.801z M326.952,328.001l70.216-0.168c-0.459,20.216-3.51,40.289-9.08,59.728    c-20.177,3.119-40.552,4.79-60.968,5v-0.024L326.952,328.001z M327.28,463.201l-0.12-54.664    c18.368-0.202,36.707-1.501,54.92-3.888C369.256,436.609,349.544,458.937,327.28,463.201z M371.688,453.849v-0.008    c13.039-15.289,22.898-33.024,29-52.168c15.037-2.716,29.809-6.731,44.152-12C428.598,418.871,402.751,441.546,371.688,453.849z     M454.632,367.833c-15.438,7.627-31.83,13.148-48.736,16.416c4.491-18.498,6.943-37.432,7.312-56.464l49.384-0.12    c-0.719,13.703-3.408,27.231-7.984,40.168H454.632z"/><path d="M357.608,207.329c-0.198-51.908-42.292-93.905-94.2-93.984c-51.367-0.049-93.048,41.553-93.097,92.919    c0,0.134,0,0.267,0,0.401c0.203,51.92,42.319,93.919,94.24,93.976c51.367,0.027,93.03-41.593,93.056-92.959    C357.608,207.564,357.608,207.447,357.608,207.329z M228.056,275.617c-6.635-3.534-12.728-8.001-18.096-13.264    c6.368-2.104,13.696-4.208,22.096-6.144C230.504,262.46,229.171,268.929,228.056,275.617z M199.136,249.201    c-0.984-1.504-1.928-3.04-2.8-4.592l0.04,0.032c16.448-26.62,41.09-47.183,70.224-58.6c-13.238,15.436-23.234,33.379-29.392,52.76    C224.275,241.31,211.548,244.787,199.136,249.201z M310.624,176.801l0.12,54.592c-18.522,0.235-37.01,1.651-55.352,4.24    C268.296,203.097,288.336,181.057,310.624,176.801z M264.552,284.641c-7.177-0.013-14.319-1.012-21.224-2.968    c1.431-9.769,3.507-19.433,6.216-28.928c20.249-3.325,40.721-5.112,61.24-5.344l0.048,21.728    C297.512,279.214,281.258,284.661,264.552,284.641z M318.208,160.009c-51.226,0.375-99.202,25.159-129.152,66.72    c-1.781-6.552-2.703-13.307-2.744-20.096c-0.124-20.531,8.001-40.252,22.552-54.736c14.439-14.502,34.08-22.623,54.544-22.552    c20.745-0.045,40.645,8.218,55.256,22.944c2.474,2.51,4.778,5.183,6.896,8C323.104,160.185,320.656,160.017,318.208,160.009z     M326.8,252.921v-5.44c1.208,0,2.4,0.056,3.592,0.08C329.272,249.396,328.075,251.183,326.8,252.921z M337.704,231.721    c-3.627-0.123-7.28-0.205-10.96-0.248l-0.12-54.52c3.414,0.654,6.742,1.696,9.92,3.104    C342.872,196.631,343.282,214.881,337.704,231.721z"/><path d="M222.88,8.001c0.12-4.297-3.266-7.878-7.564-7.998c-0.121-0.003-0.243-0.004-0.364-0.002H179.36v16h16.28l-53.024,53.016    L129.28,55.673c-3.122-3.126-8.188-3.129-11.314-0.006c-0.002,0.002-0.004,0.004-0.006,0.006l-47.008,47.016L58.608,90.345    c-3.124-3.123-8.188-3.123-11.312,0L1.128,136.513l11.312,11.312l40.512-40.512l12.344,12.344c3.124,3.123,8.188,3.123,11.312,0    l47.008-47.008l13.344,13.344c3.122,3.126,8.188,3.129,11.314,0.006c0.002-0.002,0.004-0.004,0.006-0.006l58.672-58.68v12.688h16    v-32H222.88z"/><rect x="366px" y="48px" width="16px" height="32px"/><rect x="398px" y="32px" width="16px" height="48px"/><rect x="430px" y="16px" width="16px" height="64px"/><rect x="462px" y="0px" width="16px" height="80px"/></g></defs><g fi:class="KUsePattern"><pattern id="pattern_L1_1" width="350" height="350" patternUnits="userSpaceOnUse"><use xlink:href="#L1_1" x="-350" y="-350"/><use xlink:href="#L1_1" x="0" y="-350"/><use xlink:href="#L1_1" x="350" y="-350"/><use xlink:href="#L1_1" x="-350" y="0"/><use xlink:href="#L1_1" x="0" y="0"/><use xlink:href="#L1_1" x="350" y="0"/><use xlink:href="#L1_1" x="-350" y="350"/><use xlink:href="#L1_1" x="0" y="350"/><use xlink:href="#L1_1" x="350" y="350"/></pattern><rect x="0" y="0" width="100%" height="100%" fill="url(#pattern_L1_1)"/></g><g fi:class="KUsePattern"><pattern id="pattern_L1_2" width="350" height="350" patternUnits="userSpaceOnUse"><use xlink:href="#L1_2" x="-350" y="-350"/><use xlink:href="#L1_2" x="0" y="-350"/><use xlink:href="#L1_2" x="350" y="-350"/><use xlink:href="#L1_2" x="-350" y="0"/><use xlink:href="#L1_2" x="0" y="0"/><use xlink:href="#L1_2" x="350" y="0"/><use xlink:href="#L1_2" x="-350" y="350"/><use xlink:href="#L1_2" x="0" y="350"/><use xlink:href="#L1_2" x="350" y="350"/></pattern><rect x="0" y="0" width="100%" height="100%" fill="url(#pattern_L1_2)"/></g><g fi:class="KUsePattern"><pattern id="pattern_L1_3" width="350" height="350" patternUnits="userSpaceOnUse"><use xlink:href="#L1_3" x="-350" y="-350"/><use xlink:href="#L1_3" x="0" y="-350"/><use xlink:href="#L1_3" x="350" y="-350"/><use xlink:href="#L1_3" x="-350" y="0"/><use xlink:href="#L1_3" x="0" y="0"/><use xlink:href="#L1_3" x="350" y="0"/><use xlink:href="#L1_3" x="-350" y="350"/><use xlink:href="#L1_3" x="0" y="350"/><use xlink:href="#L1_3" x="350" y="350"/></pattern><rect x="0" y="0" width="100%" height="100%" fill="url(#pattern_L1_3)"/></g><g fi:class="KUsePattern"><pattern id="pattern_L1_4" width="350" height="350" patternUnits="userSpaceOnUse"><use xlink:href="#L1_4" x="-350" y="-350"/><use xlink:href="#L1_4" x="0" y="-350"/><use xlink:href="#L1_4" x="350" y="-350"/><use xlink:href="#L1_4" x="-350" y="0"/><use xlink:href="#L1_4" x="0" y="0"/><use xlink:href="#L1_4" x="350" y="0"/><use xlink:href="#L1_4" x="-350" y="350"/><use xlink:href="#L1_4" x="0" y="350"/><use xlink:href="#L1_4" x="350" y="350"/></pattern><rect x="0" y="0" width="100%" height="100%" fill="url(#pattern_L1_4)"/></g><g fi:class="KUsePattern"><pattern id="pattern_L1_5" width="350" height="350" patternUnits="userSpaceOnUse"><use xlink:href="#L1_5" x="-350" y="-350"/><use xlink:href="#L1_5" x="0" y="-350"/><use xlink:href="#L1_5" x="350" y="-350"/><use xlink:href="#L1_5" x="-350" y="0"/><use xlink:href="#L1_5" x="0" y="0"/><use xlink:href="#L1_5" x="350" y="0"/><use xlink:href="#L1_5" x="-350" y="350"/><use xlink:href="#L1_5" x="0" y="350"/><use xlink:href="#L1_5" x="350" y="350"/></pattern><rect x="0" y="0" width="100%" height="100%" fill="url(#pattern_L1_5)"/></g><g fi:class="KUsePattern"><pattern id="pattern_L1_6" width="350" height="350" patternUnits="userSpaceOnUse"><use xlink:href="#L1_6" x="-350" y="-350"/><use xlink:href="#L1_6" x="0" y="-350"/><use xlink:href="#L1_6" x="350" y="-350"/><use xlink:href="#L1_6" x="-350" y="0"/><use xlink:href="#L1_6" x="0" y="0"/><use xlink:href="#L1_6" x="350" y="0"/><use xlink:href="#L1_6" x="-350" y="350"/><use xlink:href="#L1_6" x="0" y="350"/><use xlink:href="#L1_6" x="350" y="350"/></pattern><rect x="0" y="0" width="100%" height="100%" fill="url(#pattern_L1_6)"/></g><g fi:class="KUsePattern"><pattern id="pattern_L1_7" width="350" height="350" patternUnits="userSpaceOnUse"><use xlink:href="#L1_7" x="-350" y="-350"/><use xlink:href="#L1_7" x="0" y="-350"/><use xlink:href="#L1_7" x="350" y="-350"/><use xlink:href="#L1_7" x="-350" y="0"/><use xlink:href="#L1_7" x="0" y="0"/><use xlink:href="#L1_7" x="350" y="0"/><use xlink:href="#L1_7" x="-350" y="350"/><use xlink:href="#L1_7" x="0" y="350"/><use xlink:href="#L1_7" x="350" y="350"/></pattern><rect x="0" y="0" width="100%" height="100%" fill="url(#pattern_L1_7)"/></g><g fi:class="KUsePattern"><pattern id="pattern_L1_8" width="350" height="350" patternUnits="userSpaceOnUse"><use xlink:href="#L1_8" x="-350" y="-350"/><use xlink:href="#L1_8" x="0" y="-350"/><use xlink:href="#L1_8" x="350" y="-350"/><use xlink:href="#L1_8" x="-350" y="0"/><use xlink:href="#L1_8" x="0" y="0"/><use xlink:href="#L1_8" x="350" y="0"/><use xlink:href="#L1_8" x="-350" y="350"/><use xlink:href="#L1_8" x="0" y="350"/><use xlink:href="#L1_8" x="350" y="350"/></pattern><rect x="0" y="0" width="100%" height="100%" fill="url(#pattern_L1_8)"/></g><g fi:class="KUsePattern"><pattern id="pattern_L1_9" width="350" height="350" patternUnits="userSpaceOnUse"><use xlink:href="#L1_9" x="-350" y="-350"/><use xlink:href="#L1_9" x="0" y="-350"/><use xlink:href="#L1_9" x="350" y="-350"/><use xlink:href="#L1_9" x="-350" y="0"/><use xlink:href="#L1_9" x="0" y="0"/><use xlink:href="#L1_9" x="350" y="0"/><use xlink:href="#L1_9" x="-350" y="350"/><use xlink:href="#L1_9" x="0" y="350"/><use xlink:href="#L1_9" x="350" y="350"/></pattern><rect x="0" y="0" width="100%" height="100%" fill="url(#pattern_L1_9)"/></g><g fi:class="KUsePattern"><pattern id="pattern_L1_10" width="350" height="350" patternUnits="userSpaceOnUse"><use xlink:href="#L1_10" x="-350" y="-350"/><use xlink:href="#L1_10" x="0" y="-350"/><use xlink:href="#L1_10" x="350" y="-350"/><use xlink:href="#L1_10" x="-350" y="0"/><use xlink:href="#L1_10" x="0" y="0"/><use xlink:href="#L1_10" x="350" y="0"/><use xlink:href="#L1_10" x="-350" y="350"/><use xlink:href="#L1_10" x="0" y="350"/><use xlink:href="#L1_10" x="350" y="350"/></pattern><rect x="0" y="0" width="100%" height="100%" fill="url(#pattern_L1_10)"/></g><g fi:class="KUsePattern"><pattern id="pattern_L1_11" width="350" height="350" patternUnits="userSpaceOnUse"><use xlink:href="#L1_11" x="-350" y="-350"/><use xlink:href="#L1_11" x="0" y="-350"/><use xlink:href="#L1_11" x="350" y="-350"/><use xlink:href="#L1_11" x="-350" y="0"/><use xlink:href="#L1_11" x="0" y="0"/><use xlink:href="#L1_11" x="350" y="0"/><use xlink:href="#L1_11" x="-350" y="350"/><use xlink:href="#L1_11" x="0" y="350"/><use xlink:href="#L1_11" x="350" y="350"/></pattern><rect x="0" y="0" width="100%" height="100%" fill="url(#pattern_L1_11)"/></g><g fi:class="KUsePattern"><pattern id="pattern_L1_12" width="350" height="350" patternUnits="userSpaceOnUse"><use xlink:href="#L1_12" x="-350" y="-350"/><use xlink:href="#L1_12" x="0" y="-350"/><use xlink:href="#L1_12" x="350" y="-350"/><use xlink:href="#L1_12" x="-350" y="0"/><use xlink:href="#L1_12" x="0" y="0"/><use xlink:href="#L1_12" x="350" y="0"/><use xlink:href="#L1_12" x="-350" y="350"/><use xlink:href="#L1_12" x="0" y="350"/><use xlink:href="#L1_12" x="350" y="350"/></pattern><rect x="0" y="0" width="100%" height="100%" fill="url(#pattern_L1_12)"/></g><g fi:class="KUsePattern"><pattern id="pattern_L1_13" width="350" height="350" patternUnits="userSpaceOnUse"><use xlink:href="#L1_13" x="-350" y="-350"/><use xlink:href="#L1_13" x="0" y="-350"/><use xlink:href="#L1_13" x="350" y="-350"/><use xlink:href="#L1_13" x="-350" y="0"/><use xlink:href="#L1_13" x="0" y="0"/><use xlink:href="#L1_13" x="350" y="0"/><use xlink:href="#L1_13" x="-350" y="350"/><use xlink:href="#L1_13" x="0" y="350"/><use xlink:href="#L1_13" x="350" y="350"/></pattern><rect x="0" y="0" width="100%" height="100%" fill="url(#pattern_L1_13)"/></g><g fi:class="KUsePattern"><pattern id="pattern_L1_14" width="350" height="350" patternUnits="userSpaceOnUse"><use xlink:href="#L1_14" x="-350" y="-350"/><use xlink:href="#L1_14" x="0" y="-350"/><use xlink:href="#L1_14" x="350" y="-350"/><use xlink:href="#L1_14" x="-350" y="0"/><use xlink:href="#L1_14" x="0" y="0"/><use xlink:href="#L1_14" x="350" y="0"/><use xlink:href="#L1_14" x="-350" y="350"/><use xlink:href="#L1_14" x="0" y="350"/><use xlink:href="#L1_14" x="350" y="350"/></pattern><rect x="0" y="0" width="100%" height="100%" fill="url(#pattern_L1_14)"/></g><g fi:class="KUsePattern"><pattern id="pattern_L1_15" width="350" height="350" patternUnits="userSpaceOnUse"><use xlink:href="#L1_15" x="-350" y="-350"/><use xlink:href="#L1_15" x="0" y="-350"/><use xlink:href="#L1_15" x="350" y="-350"/><use xlink:href="#L1_15" x="-350" y="0"/><use xlink:href="#L1_15" x="0" y="0"/><use xlink:href="#L1_15" x="350" y="0"/><use xlink:href="#L1_15" x="-350" y="350"/><use xlink:href="#L1_15" x="0" y="350"/><use xlink:href="#L1_15" x="350" y="350"/></pattern><rect x="0" y="0" width="100%" height="100%" fill="url(#pattern_L1_15)"/></g><g fi:class="KUsePattern"><pattern id="pattern_L1_16" width="350" height="350" patternUnits="userSpaceOnUse"><use xlink:href="#L1_16" x="-350" y="-350"/><use xlink:href="#L1_16" x="0" y="-350"/><use xlink:href="#L1_16" x="350" y="-350"/><use xlink:href="#L1_16" x="-350" y="0"/><use xlink:href="#L1_16" x="0" y="0"/><use xlink:href="#L1_16" x="350" y="0"/><use xlink:href="#L1_16" x="-350" y="350"/><use xlink:href="#L1_16" x="0" y="350"/><use xlink:href="#L1_16" x="350" y="350"/></pattern><rect x="0" y="0" width="100%" height="100%" fill="url(#pattern_L1_16)"/></g><g fi:class="KUsePattern"><pattern id="pattern_L1_17" width="350" height="350" patternUnits="userSpaceOnUse"><use xlink:href="#L1_17" x="-350" y="-350"/><use xlink:href="#L1_17" x="0" y="-350"/><use xlink:href="#L1_17" x="350" y="-350"/><use xlink:href="#L1_17" x="-350" y="0"/><use xlink:href="#L1_17" x="0" y="0"/><use xlink:href="#L1_17" x="350" y="0"/><use xlink:href="#L1_17" x="-350" y="350"/><use xlink:href="#L1_17" x="0" y="350"/><use xlink:href="#L1_17" x="350" y="350"/></pattern><rect x="0" y="0" width="100%" height="100%" fill="url(#pattern_L1_17)"/></g><g fi:class="KUsePattern"><pattern id="pattern_L1_18" width="350" height="350" patternUnits="userSpaceOnUse"><use xlink:href="#L1_18" x="-350" y="-350"/><use xlink:href="#L1_18" x="0" y="-350"/><use xlink:href="#L1_18" x="350" y="-350"/><use xlink:href="#L1_18" x="-350" y="0"/><use xlink:href="#L1_18" x="0" y="0"/><use xlink:href="#L1_18" x="350" y="0"/><use xlink:href="#L1_18" x="-350" y="350"/><use xlink:href="#L1_18" x="0" y="350"/><use xlink:href="#L1_18" x="350" y="350"/></pattern><rect x="0" y="0" width="100%" height="100%" fill="url(#pattern_L1_18)"/></g><g fi:class="KUsePattern"><pattern id="pattern_L1_19" width="350" height="350" patternUnits="userSpaceOnUse"><use xlink:href="#L1_19" x="-350" y="-350"/><use xlink:href="#L1_19" x="0" y="-350"/><use xlink:href="#L1_19" x="350" y="-350"/><use xlink:href="#L1_19" x="-350" y="0"/><use xlink:href="#L1_19" x="0" y="0"/><use xlink:href="#L1_19" x="350" y="0"/><use xlink:href="#L1_19" x="-350" y="350"/><use xlink:href="#L1_19" x="0" y="350"/><use xlink:href="#L1_19" x="350" y="350"/></pattern><rect x="0" y="0" width="100%" height="100%" fill="url(#pattern_L1_19)"/></g><g fi:class="KUsePattern"><pattern id="pattern_L1_20" width="350" height="350" patternUnits="userSpaceOnUse"><use xlink:href="#L1_20" x="-350" y="-350"/><use xlink:href="#L1_20" x="0" y="-350"/><use xlink:href="#L1_20" x="350" y="-350"/><use xlink:href="#L1_20" x="-350" y="0"/><use xlink:href="#L1_20" x="0" y="0"/><use xlink:href="#L1_20" x="350" y="0"/><use xlink:href="#L1_20" x="-350" y="350"/><use xlink:href="#L1_20" x="0" y="350"/><use xlink:href="#L1_20" x="350" y="350"/></pattern><rect x="0" y="0" width="100%" height="100%" fill="url(#pattern_L1_20)"/></g><g fi:class="KUsePattern"><pattern id="pattern_L1_22" width="350" height="350" patternUnits="userSpaceOnUse"><use xlink:href="#L1_22" x="-350" y="-350"/><use xlink:href="#L1_22" x="0" y="-350"/><use xlink:href="#L1_22" x="350" y="-350"/><use xlink:href="#L1_22" x="-350" y="0"/><use xlink:href="#L1_22" x="0" y="0"/><use xlink:href="#L1_22" x="350" y="0"/><use xlink:href="#L1_22" x="-350" y="350"/><use xlink:href="#L1_22" x="0" y="350"/><use xlink:href="#L1_22" x="350" y="350"/></pattern><rect x="0" y="0" width="100%" height="100%" fill="url(#pattern_L1_22)"/></g></svg>