<?xml version="1.0" encoding="iso-8859-1"?>
<!-- Generator: Adobe Illustrator 19.0.0, SVG Export Plug-In . SVG Version: 6.00 Build 0)  -->
<svg version="1.1" id="Capa_1" xmlns="http://www.w3.org/2000/svg" xmlns:xlink="http://www.w3.org/1999/xlink" x="0px" y="0px"
	 viewBox="0 0 506.936 506.936" style="enable-background:new 0 0 506.936 506.936;" xml:space="preserve">
<g transform="matrix(1.25 0 0 -1.25 0 45)">
	<g>
		<g>
			<path style="fill:#D2A077;" d="M292.539-283.761c-13.483,0-25.452,9.626-27.955,23.359L219.072-10.091
				c-2.81,15.451,7.441,30.265,22.903,33.064c15.451,2.867,30.265-7.43,33.075-22.892l45.511-250.311
				c2.81-15.451-7.441-30.265-22.903-33.075C295.941-283.613,294.222-283.761,292.539-283.761"/>
			<path style="fill:#F3D2A2;" d="M330.973-241.265c2.719,8.476,1.479,18.102-4.267,25.771c-0.671,0.887-4.995,6.656-11.571,15.235
				c0.057,0.592,0.193,1.286,0.193,1.832c0,5.211-21.766,29.844-42.553,52.178c-18.057,22.346-37.103,44.942-51.109,58.948
				l-14.495,14.507l-18.341-9.182c-65.058-32.518-98.384-43.861-98.679-43.964c-14.905-4.961-22.949-21.072-17.988-35.977
				c4.972-14.905,21.072-22.926,35.988-17.988c1.331,0.444,30.333,10.229,87.029,37.66c12.459-13.995,27.056-31.801,40.676-48.879
				l8.01-13.358c1.923-3.209,1.65-7.259-0.694-10.183l-39.97-49.971c-1.081-1.354-2.526-2.355-4.153-2.901l-28.797-9.591
				c-1.843-0.614-3.823-0.614-5.666,0l-53.806,17.931c-7.691,23.689-6.064,46.672-6.042,46.922
				c1.354,15.656-10.229,29.446-25.884,30.8c-15.61,1.456-29.434-10.217-30.8-25.873c-0.25-2.958-5.803-73.079,37.695-120.525
				c25.122-27.409,60.257-41.301,104.425-41.301c7.509,0,14.598-0.102,21.288-0.205c6.019-0.091,11.856-0.171,17.488-0.171
				c31.448,0,56.934,2.628,76.663,22.084c18.773,18.5,26.783,47.73,26.783,97.758C332.395-246.737,331.815-243.95,330.973-241.265"
				/>
			<path style="fill:#D2A077;" d="M315.328-198.427c-4.369,0-8.522,2.514-10.411,6.758l-45.511,102.4
				c-2.549,5.746,0.034,12.459,5.78,15.019c5.757,2.571,12.459-0.034,15.019-5.78l45.511-102.4
				c2.549-5.746-0.034-12.459-5.78-15.019C318.434-198.12,316.876-198.427,315.328-198.427"/>
			<path style="fill:#F3D2A2;" d="M289.91-350.662l-17.419,54.158c0,0-0.762-0.125-1.991-0.762
				c0.205,0.102,20.719,11.321,28.001,68.301c8.818,69.12-8.818,109.227-8.988,109.625l-1.058,2.617L248.632-1.751
				c-5.143,14.837,2.719,31.039,17.567,36.181c14.825,5.131,31.05-2.731,36.193-17.567l39.47-113.914
				c4.278-10.092,23.154-60.143,13.062-139.116C343.067-329.044,298.683-347.84,289.91-350.662"/>
		</g>
	</g>
</g>
<g>
</g>
<g>
</g>
<g>
</g>
<g>
</g>
<g>
</g>
<g>
</g>
<g>
</g>
<g>
</g>
<g>
</g>
<g>
</g>
<g>
</g>
<g>
</g>
<g>
</g>
<g>
</g>
<g>
</g>
</svg>
