<?xml version="1.0" encoding="iso-8859-1"?>
<!-- Generator: Adobe Illustrator 19.0.0, SVG Export Plug-In . SVG Version: 6.00 Build 0)  -->
<svg version="1.1" id="Capa_1" xmlns="http://www.w3.org/2000/svg" xmlns:xlink="http://www.w3.org/1999/xlink" x="0px" y="0px"
	 viewBox="0 0 475.14 475.14" style="enable-background:new 0 0 475.14 475.14;" xml:space="preserve">
<g transform="matrix(1.25 0 0 -1.25 0 45)">
	<g>
		<g>
			<g>
				<path style="fill:#B78B60;" d="M282.829-145.149l-4.233,5.928l-1.843,1.513l-45.522-0.182L184.616-2.278
					c-6.986-5.973-10.001-15.735-6.667-24.883l19.57-53.783l-0.046-1.661l19.547-55.637l-38.935,0.171l-2.526-3.538
					c-0.944-0.353-7.054-3.561-8.795-5.006c-1.331-1.104-1.832-1.547-1.832-1.547s-12.8-6.076-12.8-27.386
					c0.501-7.714,4.471-17.454,8.181-20.184c-4.085-6.508-11.332-10.422-18.136-10.422c-12.561,0-21.686,8.772-21.686,21.333
					l3.356,81.647c-9.296-4.142-15.804-13.437-15.804-24.269v-10.923l-1.24-0.057v-47.343
					c-1.775-21.811-22.471-20.742-22.471-20.742c-12.038,0-21.8,8.693-21.8,20.742v-21.811c0-1.07,0.171-2.105,0.319-3.14
					c5.86-5.052,13.392-9.307,21.732-9.307c0,0,18.307-1.058,29.298,14.404c1.399-2.082,11.412-14.575,28.297-14.575
					c19.206,0,28.763,15.986,28.752,15.997c2.287-1.308,5.382-4.267,16.759-4.267h26.135
					c-23.108-19.729-32.711-51.519-32.711-78.757c0-3.14,3.436-6.394,6.576-6.394c3.152,0,6.576,3.254,6.576,6.394
					c0,28.991,10.229,52.816,26.158,67.026c12.959,11.548,29.844,11.73,29.844,11.73c3.152,0,6.576,3.436,6.576,6.576
					s-3.425,6.576-6.576,6.576h-62.578c-12.561,0-21.686,9.307-21.686,21.868c0,12.572,9.125,21.686,21.686,21.686l91.022,0.182
					c8.715,0,17.283-7.214,17.556-7.555C293.024-153.397,288.439-148.596,282.829-145.149"/>
				<path style="fill:#B78B60;" d="M225.599,4.446l7.145,13.255h1.536l23.131-63.772l-0.023-3.322l-5.837-15.542h-0.819
					L225.599,3.263V4.446z"/>
			</g>
			<g>
				<path style="fill:#D5AB88;" d="M187.688-139.312c-7.999,0-12.129-2.298-12.129-2.298l21.959,60.655l21.242-58.357H187.688z"/>
				<path style="fill:#D5AB88;" d="M84.333-116.556h1.911c12.049,0,21.8-9.762,21.8-21.811v-46.455v-0.944
					c0-12.049-9.751-21.811-21.8-21.811h-1.911c-12.049,0-21.8,9.762-21.8,21.811v0.944v46.455
					C62.533-126.318,72.284-116.556,84.333-116.556"/>
				<path style="fill:#D5AB88;" d="M163.044-150.234c-0.216-0.228-0.432-0.466-0.637-0.705c-5.393-6.007-8.852-13.778-8.852-22.505
					c0-0.717,0.148-1.399,0.193-2.105c0.501-7.714,3.504-14.7,8.283-20.184c-0.808-1.468-1.855-2.765-2.947-4.016
					c-4.153-4.745-10.115-7.828-16.907-7.828c-12.572,0-22.756,10.194-22.756,22.756v68.267c0,5.018,1.673,9.614,4.426,13.38
					c4.13,5.655,10.775,9.375,18.33,9.375c12.561,0,22.756-10.183,22.756-22.756v-10.889v-20.207v-0.512
					C164.239-148.789,163.681-149.552,163.044-150.234"/>
				<path style="fill:#D5AB88;" d="M85.971-218.956c11.651,0,21.902,5.985,27.876,15.041c1.399-2.071,3.083-3.925,4.904-5.655
					c0.558-0.523,1.161-0.967,1.764-1.456c1.354-1.115,2.765-2.139,4.289-3.049c0.751-0.444,1.502-0.853,2.287-1.24
					c1.593-0.785,3.243-1.422,4.961-1.957c0.762-0.228,1.49-0.512,2.276-0.694c2.526-0.603,5.12-0.99,7.817-0.99
					s5.245,0.41,7.748,1.013c0.865,0.193,1.695,0.478,2.537,0.751c1.547,0.501,3.049,1.126,4.494,1.832
					c0.933,0.455,1.855,0.876,2.742,1.411c1.866,1.138,3.618,2.423,5.234,3.88c0.478,0.444,0.808,1.024,1.263,1.479
					c1.729,1.729,3.447,3.482,4.767,5.552c-0.011,0.011-0.023,0.023-0.034,0.034c2.287-1.308,5.382-4.574,16.771-4.574h28.865
					c-4.21-3.174-8.055-7.088-11.651-11.378c-13.972-16.691-22.903-41.028-22.903-68.267c0-3.14,2.537-5.689,5.689-5.689
					c3.14,0,5.689,2.549,5.689,5.689c0,28.991,10.877,54.329,27.045,68.267c8.317,7.179,18.022,11.378,28.422,11.378h1.422
					c3.14,0,5.689,2.549,5.689,5.689s-2.549,5.689-5.689,5.689h-17.067h-45.511c-12.572,0-22.767,10.194-22.767,22.756
					s10.194,22.756,22.767,22.756h91.011c0.375,0,0.717-0.091,1.081-0.114c0.819-0.034,1.638-0.102,2.458-0.239
					c0.705-0.114,1.388-0.25,2.071-0.421c0.717-0.193,1.422-0.398,2.116-0.66c0.705-0.25,1.388-0.535,2.059-0.853
					c0.649-0.307,1.263-0.66,1.877-1.024c0.637-0.375,1.24-0.762,1.832-1.206c0.592-0.432,1.161-0.91,1.707-1.411
					c0.523-0.478,1.024-0.956,1.502-1.479c0.307-0.33,0.58-0.694,0.865-1.035c0.193-0.239,0.398-0.466,0.592-0.717
					c0.432-0.569,0.831-1.161,1.206-1.775c0.387-0.637,0.728-1.274,1.058-1.946c0.341-0.694,0.637-1.422,0.91-2.162
					c0.125-0.353,0.319-0.683,0.444-1.058l12.356-40.789c1.172-3.812,5.45-21.288,4.676-24.929
					c0-54.716-53.43-111.605-118.443-111.605c-74.388,0-134.758,59.517-136.385,133.507c0.057-0.034,0.114-0.068,0.159-0.114
					c5.86-5.063,13.392-8.238,21.732-8.238H85.971z"/>
				<path style="fill:#D5AB88;" d="M235.816,23.277c5.063,10.274,17.078,15.36,28.08,11.355
					c11.81-4.289,17.909-17.351,13.608-29.161V5.459l-20.048-54.852l-0.011-0.034l0,0L232.79,17.667L235.816,23.277z"/>
				<path style="fill:#D5AB88;" d="M278.711-139.312l-27.17,74.377L227.988-0.218c-0.614,1.695-1.456,3.231-2.401,4.665
					c-5.655,8.636-16.646,12.618-26.772,8.932c-7.293-2.651-12.39-8.67-14.222-15.656c-1.126-4.312-1.013-9,0.626-13.505
					l44.931-123.529H278.711z"/>
			</g>
		</g>
	</g>
</g>
<g>
</g>
<g>
</g>
<g>
</g>
<g>
</g>
<g>
</g>
<g>
</g>
<g>
</g>
<g>
</g>
<g>
</g>
<g>
</g>
<g>
</g>
<g>
</g>
<g>
</g>
<g>
</g>
<g>
</g>
</svg>
