<?xml version="1.0" encoding="iso-8859-1"?>
<!-- Generator: Adobe Illustrator 19.0.0, SVG Export Plug-In . SVG Version: 6.00 Build 0)  -->
<svg version="1.1" id="Capa_1" xmlns="http://www.w3.org/2000/svg" xmlns:xlink="http://www.w3.org/1999/xlink" x="0px" y="0px"
	 viewBox="0 0 508.334 508.334" style="enable-background:new 0 0 508.334 508.334;" xml:space="preserve">
<g transform="matrix(1.25 0 0 -1.25 0 45)">
	<g>
		<g>
			<path style="fill:#FFDC5D;" d="M139.962-214.311c0,0-8.158,41.426,3.391,123.722c15.929-5.177,32.017-9.944,37.228-9.944
				c11.366,0,45.511,11.378,45.511,22.756s-11.378,22.756-11.378,22.756l22.756,11.378c11.378,11.378,0,79.644-45.511,79.644
				C112.314,36,83.073-43.644,83.073-43.644l0.08-0.125h-0.08c0,0-68.267-125.03-68.267-227.556c0.74,0-11.378-56.889,0-68.267
				s56.889-11.378,56.889-11.378c113.778-45.386,325.063-11.253,325.063,91.147C396.758-111.911,174.095-146.044,139.962-214.311"/>
			<path style="fill:#EF9645;" d="M220.334-330.956c-36.159,0-65.911,14.598-67.595,15.44c-5.609,2.81-7.885,9.626-5.097,15.246
				c2.799,5.621,9.614,7.919,15.258,5.12c0.478-0.228,48.242-23.438,90.522-7.282c23.381,8.932,41.244,28.524,53.123,58.209
				c2.332,5.86,9,8.681,14.791,6.349c5.837-2.332,8.681-8.954,6.349-14.791c-14.37-35.897-36.671-59.824-66.298-71.088
				C247.561-329.01,233.51-330.956,220.334-330.956"/>
		</g>
	</g>
</g>
<g>
</g>
<g>
</g>
<g>
</g>
<g>
</g>
<g>
</g>
<g>
</g>
<g>
</g>
<g>
</g>
<g>
</g>
<g>
</g>
<g>
</g>
<g>
</g>
<g>
</g>
<g>
</g>
<g>
</g>
</svg>
