<?xml version="1.0" encoding="iso-8859-1"?>
<!-- Generator: Adobe Illustrator 19.0.0, SVG Export Plug-In . SVG Version: 6.00 Build 0)  -->
<svg version="1.1" id="Capa_1" xmlns="http://www.w3.org/2000/svg" xmlns:xlink="http://www.w3.org/1999/xlink" x="0px" y="0px"
	 viewBox="0 0 501.582 501.582" style="enable-background:new 0 0 501.582 501.582;" xml:space="preserve">
<g transform="matrix(1.25 0 0 -1.25 0 45)">
	<g>
		<g>
			<g>
				<path style="fill:#EF9645;" d="M64.486-209.927c-0.887-10.49,3.652-13.631,10.763-18.614
					c7.031-4.915,49.869,32.62,63.886,38.332c14.006,5.712,145.488,33.553,139.787,58.971c-5.7,25.429-45.443,29.184-76.038,23.996
					c-30.618-5.188-89.179-32.108-106.303-46.638C79.471-168.421,64.486-209.927,64.486-209.927"/>
				<path style="fill:#EF9645;" d="M162.586-226.959c0,0-40.471-13.141-40.471-47.275s9.853-53.396,14.529-62.726
					c4.665-9.33,19.194-18.387,39.31-9.682c23.347,10.115-5.587,68.312,68.267,41.609c33.826-12.231,68.927-28.774,103.06-17.397
					c32.381,10.798,44.851,51.53,44.851,74.286c0,46.569-34.133,34.133-45.511,22.756c-11.378-11.378-102.4-34.133-113.778-34.133
					C221.466-259.522,162.586-226.959,162.586-226.959"/>
			</g>
			<path style="fill:#F9CA55;" d="M213.649-284.406c0,0-1.365,14.973-15.644,16.714c-11.73,1.422-30.219-2.492-39.822-21.686
				c-9.603-19.206-26.67-16.009-25.953-32.006c0.705-15.997,5.689-28.444,15.997-31.642c10.308-3.197,24.883,2.492,26.67,19.558
				c1.775,17.055,3.903,32.711,14.928,39.458C200.849-287.25,213.649-284.406,213.649-284.406"/>
			<path style="fill:#EF9645;" d="M198.71-259.523c0,0-11.378,11.378-34.133,11.378s-75.822-24.269-59.733-72.533
				c11.378-34.133,43.736-18.136,48.356,15.644C157.83-271.207,198.71-259.523,198.71-259.523"/>
			<path style="fill:#F9CA55;" d="M187.332-259.523c0,0-11.378,11.378-34.133,11.378s-55.58-17.408-56.889-68.267
				c-1.07-41.597,45.864-22.756,45.511,11.378C141.468-270.9,187.332-259.523,187.332-259.523"/>
			<path style="fill:#EF9645;" d="M50.799-270.9c0-37.513,5.2-60.143,27.625-56.286c37.194,6.394,23.086,52.497,55.626,65.468
				c23.643,9.409,58.049,7.157,91.25-12.55c21.879-12.982,7.543,37.501-15.212,48.879s-91.022,0-102.4,0S50.799-270.9,50.799-270.9"
				/>
			<path style="fill:#F9CA55;" d="M49.001-272.88c-18.102-30.322-7.1-61.668,24.553-54.909
				c30.618,6.531,15.269,46.308,45.511,68.267c16.942,12.311,53.453,16.441,76.208,5.063c22.756-11.378,26.192,17.692,3.436,29.07
				s-97.166,0.284-108.521-0.421C68.457-227.164,49.001-272.88,49.001-272.88"/>
			<g>
				<path style="fill:#3B88C3;" d="M101.066-294.953c-7.726-8.852-21.163-9.773-30.026-2.048l-2.219,1.946
					c-8.863,7.725-9.785,21.163-2.048,30.015l256.239,293.74c7.726,8.863,21.174,9.785,30.026,2.059l2.219-1.957
					c8.875-7.726,9.785-21.163,2.059-30.015L101.066-294.953z"/>
				<path style="fill:#3B88C3;" d="M113.263-280.981c-26.852-30.777-94.583-91.125-103.162-83.649
					c-8.579,7.487,42.018,82.785,68.858,113.562c26.852,30.788,18.898,6.167,28.376-2.105
					C116.801-261.434,140.103-250.215,113.263-280.981"/>
			</g>
			<path style="fill:#EF9645;" d="M69.823-248.441c0-11.378,27.546-21.788,38.923-10.411s38.013,25.338,73.034,10.706
				c81.954-34.236,51.063,11.378,16.93,22.756s-91.022,0-102.4,0S69.823-248.441,69.823-248.441"/>
			<path style="fill:#FFDC5D;" d="M64.395-214.501c-4.073,12.663,24.895,82.819,38.013,93.685
				c16.521,13.676,80.441,34.85,103.196,34.85S392.132-168.5,392.132-225.389s-22.756-64-55.467-72.886
				c-26.158-7.111-80.953-2.753-104.892,19.547c-20.969,19.558-35.556,33.075-55.819,41.961
				c-37.569,16.475-62.612-4.824-73.99-16.202c-22.756-22.756-65.627,1.809-29.878,40.732c25.6,27.864,48.151,36.545,69.734,43.736
				c68.267,22.756,113.778,22.756,91.022,45.511c-8.044,8.044-12.425-3.937-23.62-5.973c-22.528-4.096-40.459-6.838-70.155-16.748
				C128.816-149.124,80.233-180.106,64.395-214.501"/>
			<path style="fill:#EF9645;" d="M144.051-148.874c12.106,4.415,64.876,14.017,92.331,23.529
				c22.175,7.703,41.631-7.236-0.455-23.074c-40.63-15.28-82.83-14.029-113.596-26.249
				C110.691-179.286,100.599-164.711,144.051-148.874"/>
			<path style="fill:#3B88C3;" d="M249.762-54.984c0,0-67.447-77.312-96.097-109.921c25.646,10.547,48.583,8.545,70.519,21.447
				c21.925,12.891,31.926,26.647,65.195,64.785C301.724-64.507,249.762-54.984,249.762-54.984"/>
		</g>
	</g>
</g>
<g>
</g>
<g>
</g>
<g>
</g>
<g>
</g>
<g>
</g>
<g>
</g>
<g>
</g>
<g>
</g>
<g>
</g>
<g>
</g>
<g>
</g>
<g>
</g>
<g>
</g>
<g>
</g>
<g>
</g>
</svg>
